<svg width="964" height="1037" xmlns="http://www.w3.org/2000/svg" xmlns:xlink="http://www.w3.org/1999/xlink" overflow="hidden"><defs><clipPath id="clip0"><path d="M518 30 1482 30 1482 1067 518 1067Z" fill-rule="evenodd" clip-rule="evenodd"/></clipPath></defs><g clip-path="url(#clip0)" transform="translate(-518 -30)"><path d="M903.825 1047.04 903.825 1055.18 912.345 1055.18C912.895 1055.18 913.408 1055.07 913.884 1054.86 914.359 1054.64 914.772 1054.36 915.122 1053.99 915.473 1053.63 915.748 1053.21 915.948 1052.72 916.148 1052.23 916.248 1051.71 916.248 1051.16 916.248 1050.61 916.154 1050.09 915.967 1049.59 915.779 1049.09 915.529 1048.65 915.216 1048.28 914.903 1047.9 914.522 1047.6 914.071 1047.38 913.621 1047.15 913.133 1047.04 912.608 1047.04ZM558.204 1047.04 558.204 1055.18 566.724 1055.18C567.274 1055.18 567.787 1055.07 568.263 1054.86 568.738 1054.64 569.151 1054.36 569.501 1053.99 569.852 1053.63 570.127 1053.21 570.327 1052.72 570.527 1052.23 570.627 1051.71 570.627 1051.16 570.627 1050.61 570.533 1050.09 570.346 1049.59 570.158 1049.09 569.908 1048.65 569.595 1048.28 569.282 1047.9 568.901 1047.6 568.45 1047.38 568 1047.15 567.512 1047.04 566.987 1047.04ZM583.226 1035.9 583.226 1045.84 590.583 1045.84C591.183 1045.84 591.727 1045.71 592.215 1045.44 592.703 1045.18 593.122 1044.82 593.473 1044.36 593.823 1043.89 594.098 1043.36 594.298 1042.76 594.499 1042.16 594.599 1041.53 594.599 1040.85 594.599 1040.18 594.48 1039.54 594.242 1038.94 594.005 1038.34 593.692 1037.81 593.304 1037.36 592.916 1036.91 592.466 1036.56 591.953 1036.29 591.44 1036.03 590.908 1035.9 590.357 1035.9ZM903.825 1035.82 903.825 1043.66 911.557 1043.66C912.082 1043.66 912.564 1043.56 913.002 1043.36 913.44 1043.16 913.827 1042.89 914.165 1042.56 914.503 1042.22 914.766 1041.81 914.953 1041.34 915.141 1040.86 915.235 1040.34 915.235 1039.76 915.235 1038.61 914.91 1037.67 914.259 1036.93 913.609 1036.19 912.783 1035.82 911.782 1035.82ZM845.047 1035.82C843.696 1035.82 842.495 1036.11 841.444 1036.67 840.393 1037.23 839.505 1037.96 838.779 1038.86 838.054 1039.76 837.497 1040.79 837.109 1041.96 836.721 1043.12 836.527 1044.3 836.527 1045.5 836.527 1046.75 836.727 1047.96 837.128 1049.14 837.528 1050.31 838.097 1051.35 838.836 1052.25 839.574 1053.15 840.468 1053.87 841.519 1054.41 842.57 1054.94 843.746 1055.21 845.047 1055.21 846.398 1055.21 847.593 1054.93 848.632 1054.37 849.67 1053.81 850.552 1053.06 851.278 1052.14 852.004 1051.21 852.554 1050.18 852.929 1049.03 853.305 1047.88 853.492 1046.7 853.492 1045.5 853.492 1044.23 853.292 1043.01 852.892 1041.84 852.492 1040.68 851.922 1039.66 851.184 1038.77 850.446 1037.88 849.558 1037.17 848.519 1036.63 847.481 1036.09 846.323 1035.82 845.047 1035.82ZM782.492 1035.82C781.14 1035.82 779.939 1036.11 778.888 1036.67 777.837 1037.23 776.949 1037.96 776.223 1038.86 775.498 1039.76 774.941 1040.79 774.553 1041.96 774.165 1043.12 773.971 1044.3 773.971 1045.5 773.971 1046.75 774.172 1047.96 774.572 1049.14 774.972 1050.31 775.542 1051.35 776.28 1052.25 777.018 1053.15 777.912 1053.87 778.963 1054.41 780.014 1054.94 781.19 1055.21 782.492 1055.21 783.843 1055.21 785.037 1054.93 786.076 1054.37 787.114 1053.81 787.996 1053.06 788.722 1052.14 789.448 1051.21 789.998 1050.18 790.374 1049.03 790.749 1047.88 790.937 1046.7 790.937 1045.5 790.937 1044.23 790.736 1043.01 790.336 1041.84 789.936 1040.68 789.366 1039.66 788.628 1038.77 787.89 1037.88 787.002 1037.17 785.963 1036.63 784.925 1036.09 783.768 1035.82 782.492 1035.82ZM615.155 1035.82C613.803 1035.82 612.602 1036.11 611.551 1036.67 610.5 1037.23 609.612 1037.96 608.887 1038.86 608.161 1039.76 607.604 1040.79 607.216 1041.96 606.828 1043.12 606.635 1044.3 606.635 1045.5 606.635 1046.75 606.835 1047.96 607.235 1049.14 607.635 1050.31 608.205 1051.35 608.943 1052.25 609.681 1053.15 610.576 1053.87 611.626 1054.41 612.677 1054.94 613.853 1055.21 615.155 1055.21 616.506 1055.21 617.701 1054.93 618.739 1054.37 619.778 1053.81 620.66 1053.06 621.385 1052.14 622.111 1051.21 622.661 1050.18 623.037 1049.03 623.412 1047.88 623.6 1046.7 623.6 1045.5 623.6 1044.23 623.4 1043.01 622.999 1041.84 622.599 1040.68 622.03 1039.66 621.291 1038.77 620.553 1037.88 619.665 1037.17 618.626 1036.63 617.588 1036.09 616.431 1035.82 615.155 1035.82ZM558.204 1035.82 558.204 1043.66 565.936 1043.66C566.461 1043.66 566.943 1043.56 567.381 1043.36 567.819 1043.16 568.206 1042.89 568.544 1042.56 568.882 1042.22 569.145 1041.81 569.332 1041.34 569.52 1040.86 569.614 1040.34 569.614 1039.76 569.614 1038.61 569.289 1037.67 568.638 1036.93 567.988 1036.19 567.162 1035.82 566.161 1035.82ZM921.979 1032.19 926.595 1032.19 933.952 1045.54 941.383 1032.19 946 1032.19 936.054 1049.29 936.054 1058.81 931.85 1058.81 931.85 1049.21ZM899.621 1032.19 913.358 1032.19C914.284 1032.19 915.122 1032.39 915.873 1032.79 916.624 1033.19 917.262 1033.71 917.787 1034.34 918.313 1034.98 918.719 1035.71 919.007 1036.52 919.295 1037.33 919.439 1038.15 919.439 1038.98 919.439 1040.28 919.107 1041.49 918.444 1042.63 917.781 1043.77 916.836 1044.61 915.61 1045.16 917.137 1045.61 918.344 1046.43 919.232 1047.62 920.121 1048.81 920.565 1050.25 920.565 1051.95 920.565 1053.03 920.346 1053.99 919.908 1054.84 919.47 1055.69 918.882 1056.41 918.144 1056.99 917.406 1057.58 916.536 1058.03 915.535 1058.34 914.534 1058.66 913.471 1058.81 912.345 1058.81L899.621 1058.81ZM861.712 1032.19 865.916 1032.19 865.916 1045.69C865.916 1046.91 866.035 1048.09 866.272 1049.23 866.51 1050.37 866.911 1051.38 867.474 1052.27 868.036 1053.16 868.787 1053.87 869.726 1054.41 870.664 1054.94 871.821 1055.21 873.198 1055.21 874.599 1055.21 875.762 1054.94 876.688 1054.39 877.614 1053.84 878.358 1053.12 878.921 1052.23 879.484 1051.34 879.885 1050.33 880.122 1049.19 880.36 1048.06 880.479 1046.89 880.479 1045.69L880.479 1032.19 884.72 1032.19 884.72 1045.69C884.72 1047.51 884.508 1049.23 884.082 1050.84 883.657 1052.46 882.981 1053.87 882.055 1055.08 881.13 1056.29 879.935 1057.25 878.471 1057.95 877.007 1058.65 875.249 1059 873.198 1059 871.071 1059 869.275 1058.63 867.811 1057.89 866.348 1057.16 865.165 1056.17 864.264 1054.93 863.364 1053.69 862.713 1052.28 862.313 1050.68 861.912 1049.07 861.712 1047.41 861.712 1045.69ZM806.25 1032.19 810.867 1032.19 818.223 1045.54 825.655 1032.19 830.271 1032.19 820.325 1049.29 820.325 1058.81 816.121 1058.81 816.121 1049.21ZM745.483 1032.19 767.478 1032.19 767.478 1035.9 758.62 1035.9 758.62 1058.81 754.379 1058.81 754.379 1035.9 745.483 1035.9ZM712.642 1032.19 734.636 1032.19 734.636 1035.9 725.778 1035.9 725.778 1058.81 721.537 1058.81 721.537 1035.9 712.642 1035.9ZM686.931 1032.19 691.135 1032.19 691.135 1043.32 704.572 1043.32 704.572 1032.19 708.813 1032.19 708.813 1058.81 704.572 1058.81 704.572 1047.07 691.135 1047.07 691.135 1058.81 686.931 1058.81ZM631.819 1032.19 636.023 1032.19 636.023 1045.69C636.023 1046.91 636.142 1048.09 636.38 1049.23 636.618 1050.37 637.018 1051.38 637.581 1052.27 638.144 1053.16 638.895 1053.87 639.833 1054.41 640.771 1054.94 641.929 1055.21 643.305 1055.21 644.706 1055.21 645.87 1054.94 646.795 1054.39 647.721 1053.84 648.466 1053.12 649.029 1052.23 649.592 1051.34 649.992 1050.33 650.23 1049.19 650.467 1048.06 650.586 1046.89 650.586 1045.69L650.586 1032.19 654.828 1032.19 654.828 1045.69C654.828 1047.51 654.615 1049.23 654.19 1050.84 653.764 1052.46 653.088 1053.87 652.163 1055.08 651.237 1056.29 650.042 1057.25 648.578 1057.95 647.114 1058.65 645.357 1059 643.305 1059 641.178 1059 639.382 1058.63 637.919 1057.89 636.455 1057.16 635.273 1056.17 634.372 1054.93 633.471 1053.69 632.82 1052.28 632.42 1050.68 632.02 1049.07 631.819 1047.41 631.819 1045.69ZM579.022 1032.19 590.62 1032.19C591.821 1032.19 592.928 1032.44 593.942 1032.94 594.955 1033.44 595.825 1034.09 596.55 1034.91 597.276 1035.72 597.845 1036.64 598.258 1037.68 598.671 1038.72 598.878 1039.78 598.878 1040.85 598.878 1041.75 598.753 1042.61 598.502 1043.44 598.252 1044.26 597.902 1045.03 597.451 1045.73 597.001 1046.43 596.45 1047.03 595.8 1047.54 595.149 1048.06 594.436 1048.44 593.66 1048.69L599.928 1058.81 595.162 1058.81 589.382 1049.55 583.226 1049.55 583.226 1058.81 579.022 1058.81ZM554 1032.19 567.737 1032.19C568.663 1032.19 569.501 1032.39 570.252 1032.79 571.003 1033.19 571.641 1033.71 572.166 1034.34 572.692 1034.98 573.098 1035.71 573.386 1036.52 573.674 1037.33 573.818 1038.15 573.818 1038.98 573.818 1040.28 573.486 1041.49 572.823 1042.63 572.16 1043.77 571.215 1044.61 569.989 1045.16 571.516 1045.61 572.723 1046.43 573.611 1047.62 574.5 1048.81 574.944 1050.25 574.944 1051.95 574.944 1053.03 574.725 1053.99 574.287 1054.84 573.849 1055.69 573.261 1056.41 572.523 1056.99 571.785 1057.58 570.915 1058.03 569.914 1058.34 568.913 1058.66 567.85 1058.81 566.724 1058.81L554 1058.81ZM845.085 1032C846.987 1032 848.719 1032.39 850.283 1033.18 851.847 1033.97 853.186 1035 854.299 1036.28 855.413 1037.55 856.276 1038.99 856.889 1040.61 857.502 1042.22 857.809 1043.86 857.809 1045.54 857.809 1047.31 857.49 1049.01 856.852 1050.64 856.214 1052.26 855.319 1053.69 854.168 1054.93 853.017 1056.17 851.659 1057.16 850.095 1057.89 848.532 1058.63 846.836 1059 845.01 1059 843.108 1059 841.375 1058.62 839.811 1057.86 838.247 1057.09 836.903 1056.08 835.777 1054.82 834.651 1053.56 833.781 1052.11 833.168 1050.49 832.555 1048.86 832.248 1047.2 832.248 1045.5 832.248 1043.73 832.574 1042.03 833.224 1040.4 833.875 1038.78 834.769 1037.34 835.908 1036.09 837.046 1034.84 838.398 1033.84 839.962 1033.11 841.526 1032.37 843.233 1032 845.085 1032ZM782.529 1032C784.431 1032 786.163 1032.39 787.727 1033.18 789.291 1033.97 790.63 1035 791.744 1036.28 792.857 1037.55 793.72 1038.99 794.333 1040.61 794.946 1042.22 795.253 1043.86 795.253 1045.54 795.253 1047.31 794.934 1049.01 794.296 1050.64 793.658 1052.26 792.763 1053.69 791.612 1054.93 790.461 1056.17 789.104 1057.16 787.54 1057.89 785.976 1058.63 784.281 1059 782.454 1059 780.552 1059 778.819 1058.62 777.256 1057.86 775.692 1057.09 774.347 1056.08 773.221 1054.82 772.095 1053.56 771.225 1052.11 770.612 1050.49 769.999 1048.86 769.693 1047.2 769.693 1045.5 769.693 1043.73 770.018 1042.03 770.668 1040.4 771.319 1038.78 772.214 1037.34 773.352 1036.09 774.491 1034.84 775.842 1033.84 777.406 1033.11 778.97 1032.37 780.677 1032 782.529 1032ZM671.38 1032C673.932 1032 676.072 1032.53 677.798 1033.59 679.525 1034.66 680.826 1036.06 681.702 1037.81L678.474 1040.14C677.748 1038.69 676.747 1037.6 675.471 1036.88 674.195 1036.15 672.794 1035.79 671.267 1035.79 670.016 1035.79 668.878 1036.06 667.852 1036.59 666.826 1037.13 665.95 1037.84 665.224 1038.73 664.499 1039.62 663.942 1040.65 663.554 1041.82 663.166 1043 662.972 1044.23 662.972 1045.5 662.972 1046.85 663.191 1048.11 663.629 1049.29 664.067 1050.46 664.668 1051.49 665.431 1052.36 666.194 1053.24 667.101 1053.93 668.152 1054.44 669.203 1054.96 670.341 1055.21 671.568 1055.21 672.919 1055.21 674.214 1054.9 675.452 1054.28 676.691 1053.65 677.873 1052.66 678.999 1051.31L678.999 1048.46 673.407 1048.46 673.407 1045.35 682.527 1045.35 682.527 1058.81 678.999 1058.81 678.999 1055.51C676.747 1057.84 674.157 1059 671.23 1059 669.453 1059 667.802 1058.63 666.275 1057.89 664.749 1057.16 663.423 1056.16 662.297 1054.91 661.171 1053.66 660.289 1052.21 659.651 1050.56 659.013 1048.91 658.694 1047.19 658.694 1045.39 658.694 1043.59 659.013 1041.88 659.651 1040.25 660.289 1038.62 661.171 1037.2 662.297 1035.98 663.423 1034.75 664.761 1033.78 666.313 1033.07 667.864 1032.36 669.553 1032 671.38 1032ZM615.192 1032C617.094 1032 618.827 1032.39 620.39 1033.18 621.954 1033.97 623.293 1035 624.407 1036.28 625.52 1037.55 626.383 1038.99 626.996 1040.61 627.609 1042.22 627.916 1043.86 627.916 1045.54 627.916 1047.31 627.597 1049.01 626.959 1050.64 626.321 1052.26 625.426 1053.69 624.275 1054.93 623.124 1056.17 621.767 1057.16 620.203 1057.89 618.639 1058.63 616.944 1059 615.117 1059 613.215 1059 611.483 1058.62 609.919 1057.86 608.355 1057.09 607.01 1056.08 605.884 1054.82 604.758 1053.56 603.888 1052.11 603.275 1050.49 602.662 1048.86 602.356 1047.2 602.356 1045.5 602.356 1043.73 602.681 1042.03 603.332 1040.4 603.982 1038.78 604.877 1037.34 606.015 1036.09 607.154 1034.84 608.505 1033.84 610.069 1033.11 611.633 1032.37 613.341 1032 615.192 1032Z" fill="#01579B" fill-rule="evenodd"/><path d="M1122.54 32.8302C1119.13 33.3576 1113.7 34.4129 1110.53 35.1323 1107.36 35.8997 1102.61 37.3386 1100.01 38.2499 1097.37 39.2093 1093.19 40.9359 1090.74 42.135 1088.29 43.2861 1084.45 45.4445 1082.19 46.8832 1079.98 48.3222 1076.43 51.152 1074.32 53.1664 1072.25 55.1809 1069.46 58.3464 1068.12 60.2649 1066.82 62.1834 1064.9 65.445 1063.84 67.5553 1062.79 69.6658 1061.35 73.119 1060.63 75.2294 1059.91 77.3397 1058.99 80.985 1058.56 83.3832 1058.03 86.5967 1057.89 89.5703 1058.08 94.8943 1058.27 100.122 1058.61 103.192 1059.38 106.166 1060 108.42 1061.25 112.065 1062.21 114.319 1063.17 116.574 1065.19 120.267 1066.68 122.473 1068.12 124.727 1070.52 127.845 1071.91 129.38 1073.36 130.963 1076.14 133.457 1078.11 134.943 1080.13 136.382 1083.49 138.493 1085.55 139.596 1087.67 140.699 1091.56 142.234 1094.2 143.001 1096.84 143.769 1101.07 144.776 1103.57 145.208 1106.06 145.591 1110.82 146.023 1114.13 146.071 1117.45 146.167 1125.13 146.023 1131.18 145.783 1139.06 145.495 1142.81 145.543 1144.2 145.927 1145.31 146.215 1146.75 146.886 1147.37 147.414 1148.04 147.941 1148.96 149.14 1149.39 150.052 1149.96 151.203 1150.11 152.258 1149.92 153.265 1149.72 154.081 1148.72 155.711 1147.61 156.862 1146.55 158.014 1144.3 159.74 1142.66 160.652 1141.03 161.563 1137.96 162.954 1135.79 163.721 1133.68 164.489 1129.74 165.592 1127.01 166.119 1124.27 166.695 1119.32 167.271 1116.01 167.414 1112.26 167.606 1108.18 167.462 1105.34 167.079 1101.84 166.647 1100.4 166.599 1099.1 167.031 1098.14 167.366 1096.7 168.374 1095.93 169.237 1095.11 170.148 1094.25 171.779 1093.96 172.834 1093.67 173.889 1093.58 175.52 1093.77 176.479 1093.91 177.391 1094.63 178.83 1095.26 179.597 1095.93 180.364 1096.89 181.228 1097.37 181.467 1097.85 181.755 1099.39 182.187 1100.78 182.475 1102.17 182.715 1105.73 183.098 1108.61 183.338 1111.54 183.53 1116.29 183.578 1119.22 183.338 1122.15 183.146 1126.67 182.523 1129.31 181.947 1131.9 181.42 1136.61 180.077 1139.78 179.021 1142.95 177.966 1147.18 176.239 1149.2 175.232 1151.16 174.225 1154.14 172.402 1155.78 171.203 1157.41 169.956 1159.52 167.894 1160.43 166.647 1161.4 165.352 1162.84 162.906 1163.65 161.131 1164.47 159.404 1165.38 156.575 1165.67 154.896 1166.05 152.594 1166.05 151.011 1165.62 148.757 1165.33 147.078 1164.33 144.2 1163.41 142.378 1162.5 140.507 1160.82 138.061 1159.71 136.91 1158.61 135.759 1156.69 134.224 1155.49 133.409 1154.29 132.641 1151.89 131.538 1150.16 130.963 1147.13 129.955 1146.55 129.907 1128.49 130.051 1116.25 130.147 1108.9 130.051 1106.88 129.667 1105.2 129.38 1101.98 128.564 1099.72 127.941 1097.47 127.269 1094.2 125.974 1092.47 125.015 1090.69 124.104 1088.15 122.425 1086.76 121.226 1085.36 120.075 1083.39 118.06 1082.38 116.861 1081.38 115.614 1079.74 113.12 1078.78 111.298 1077.87 109.523 1076.57 106.549 1075.95 104.679 1075.32 102.808 1074.56 99.5467 1074.22 97.3883 1073.93 95.0861 1073.84 91.7767 1074.03 89.3785 1074.22 87.1243 1074.8 83.671 1075.28 81.7044 1075.76 79.738 1077.1 76.2847 1078.21 74.0303 1079.79 70.7689 1081.04 69.1382 1084.55 65.5889 1086.95 63.1907 1090.17 60.4568 1091.65 59.4975 1093.19 58.5383 1095.69 57.0994 1097.18 56.332 1098.72 55.5646 1101.93 54.2695 1104.29 53.4062 1106.69 52.591 1110.77 51.3918 1113.41 50.7203 1116.05 50.0968 1121.34 49.1376 1125.18 48.61 1129.12 48.0343 1132.86 47.2669 1133.83 46.7393 1134.74 46.2597 1135.99 45.0608 1136.61 44.0055 1137.48 42.5187 1137.67 41.6074 1137.52 39.4011 1137.43 37.3386 1137.04 36.2834 1136.03 34.9405 1135.31 33.9813 1134.11 32.9739 1133.44 32.6863 1132.72 32.4465 1131.38 32.1106 1130.46 32.0148 1129.55 31.9189 1126 32.3026 1122.54 32.8302Z" fill="#192A56" fill-rule="evenodd"/><path d="M1134.15 63.2467C1133.48 63.3426 1131.06 63.6782 1128.68 63.9661 1126.35 64.2539 1122.07 65.1172 1119.16 65.8366 1116.31 66.604 1112.31 67.899 1110.36 68.7144 1108.41 69.5297 1105.32 71.1606 1103.46 72.3117 1101.61 73.4628 1098.85 75.717 1097.37 77.2997 1095.85 78.8826 1094.04 81.4726 1093.28 83.1033 1092.52 84.734 1091.61 87.5639 1091.33 89.3865 1090.9 91.8325 1090.9 93.5113 1091.28 95.6696 1091.57 97.3003 1092.42 99.9862 1093.18 101.665 1093.99 103.392 1095.75 105.934 1097.28 107.516 1098.89 109.243 1101.22 111.018 1103.13 112.025 1104.89 112.936 1107.46 113.944 1108.84 114.231 1110.41 114.567 1117.59 114.759 1127.78 114.759 1136.82 114.759 1146.24 114.999 1148.76 115.286 1151.28 115.574 1155.09 116.342 1157.18 117.013 1159.32 117.637 1162.65 119.076 1164.6 120.131 1166.55 121.186 1169.08 122.769 1170.17 123.68 1171.31 124.591 1173.12 126.606 1174.26 128.093 1175.45 129.579 1177.12 132.313 1178.02 134.184 1178.97 136.007 1180.26 139.268 1180.92 141.378 1181.59 143.489 1182.35 146.942 1182.68 149.052 1183.02 151.211 1183.11 154.233 1182.97 156.007 1182.78 157.734 1182.3 160.42 1181.92 162.003 1181.49 163.585 1180.45 166.367 1179.54 168.19 1178.64 169.964 1177.21 172.458 1176.4 173.705 1175.55 174.905 1173.26 177.543 1171.26 179.509 1169.27 181.475 1166.13 184.161 1164.22 185.408 1162.32 186.703 1158.99 188.67 1156.85 189.773 1154.71 190.876 1151.23 192.411 1149.14 193.131 1147.05 193.898 1143.33 195.001 1140.86 195.625 1138.39 196.248 1133.91 197.111 1130.87 197.495 1127.82 197.927 1122.59 198.262 1119.16 198.262 1115.78 198.262 1111.98 198.502 1110.79 198.79 1109.31 199.078 1108.08 199.749 1107.12 200.757 1106.32 201.62 1105.46 203.203 1105.17 204.258 1104.89 205.361 1104.79 206.992 1104.94 207.855 1105.13 208.766 1105.65 210.205 1106.17 211.069 1106.7 211.932 1107.79 212.987 1108.6 213.419 1109.65 213.946 1111.79 214.282 1115.21 214.426 1118.02 214.57 1123.06 214.378 1126.4 214.09 1129.77 213.755 1135.58 212.843 1139.39 212.028 1143.19 211.26 1148.76 209.774 1151.8 208.766 1154.8 207.759 1159.61 205.841 1162.46 204.498 1165.32 203.155 1169.79 200.613 1172.41 198.838 1175.55 196.776 1179.07 193.802 1182.49 190.349 1185.4 187.423 1188.63 183.634 1189.77 181.907 1190.87 180.18 1192.63 177.063 1193.63 174.952 1194.63 172.842 1196.05 169.149 1196.77 166.799 1198.01 162.818 1198.1 161.859 1198.1 153.849 1198.15 148.189 1197.91 144.304 1197.53 142.577 1197.15 141.139 1196.34 138.213 1195.67 136.102 1195.01 133.992 1193.44 130.107 1192.2 127.469 1190.92 124.831 1188.58 120.898 1187.01 118.74 1185.4 116.581 1182.54 113.512 1180.64 111.929 1178.78 110.298 1174.98 107.852 1172.22 106.413 1169.46 104.974 1165.22 103.152 1162.8 102.336 1160.32 101.521 1156.47 100.466 1154.23 100.034 1150.76 99.3149 1147 99.2188 1130.82 99.171 1112.36 99.171 1111.5 99.1229 1109.88 98.2116 1108.98 97.684 1107.84 96.3891 1107.31 95.3819 1106.55 93.7991 1106.51 93.3195 1106.98 91.6408 1107.31 90.6335 1108.31 88.9548 1109.22 87.9476 1110.12 86.9404 1112.31 85.3575 1114.07 84.3984 1115.83 83.487 1118.78 82.2879 1120.59 81.7603 1122.45 81.2328 1125.11 80.5613 1126.54 80.2735 1127.97 79.9857 1132.2 79.4102 1135.96 79.0265 1140.67 78.5947 1143.24 78.1152 1144.24 77.4917 1145.05 77.0121 1146.14 76.0049 1146.71 75.2853 1147.47 74.2302 1147.71 73.2229 1147.71 70.8728 1147.71 68.5225 1147.47 67.4674 1146.71 66.4601 1146.14 65.7407 1145 64.6376 1144.14 64.0141 1142.81 63.1506 1142 62.9589 1138.96 63.0069 1136.96 63.0547 1134.82 63.1506 1134.15 63.2467Z" fill="#273C75" fill-rule="evenodd"/><path d="M985.911 93.9161C983.668 94.3955 980.471 95.2583 978.754 95.8335 977.036 96.4089 962.006 103.264 945.354 111.078 928.702 118.844 914.579 125.556 913.958 125.939 913.338 126.323 912.431 127.473 911.907 128.48 911.429 129.487 911 131.165 911 132.267 911 133.849 917.537 148.279 944.972 207.435 968.018 257.1 979.469 281.166 980.471 282.268 981.76 283.706 982.284 283.946 984.766 284.138 987.056 284.282 987.962 284.09 989.68 283.179 991.159 282.364 992.161 281.357 992.972 279.871 993.783 278.289 994.022 277.331 993.831 275.988 993.688 275.029 979.183 243.246 961.577 205.374 944.018 167.454 929.608 136.294 929.608 136.102 929.608 135.911 940.726 130.589 954.324 124.214 967.875 117.885 980.09 112.229 981.378 111.653 982.714 111.078 985.481 110.215 987.581 109.688 989.871 109.161 993.115 108.777 995.74 108.777 998.555 108.777 1001.42 109.113 1003.85 109.736 1005.9 110.263 1009 111.366 1010.67 112.133 1012.34 112.948 1015.02 114.53 1016.64 115.68 1018.26 116.831 1020.5 118.796 1021.7 120.091 1022.89 121.385 1024.75 123.638 1025.85 125.124 1026.9 126.562 1028.57 129.343 1029.52 131.213 1030.48 133.082 1031.76 136.198 1032.38 138.116 1033 140.033 1033.77 143.437 1034.1 145.594 1034.48 148.135 1034.58 151.203 1034.39 153.84 1034.2 156.141 1033.62 159.592 1033.1 161.558 1032.57 163.476 1031.29 166.735 1030.24 168.797 1029.14 170.81 1026.99 173.878 1025.42 175.604 1023.84 177.33 1020.84 179.918 1018.69 181.357 1016.54 182.747 1007.72 187.205 999.127 191.232 989.346 195.834 982.905 199.094 982.046 199.957 981.282 200.724 980.424 202.258 980.137 203.313 979.851 204.415 979.756 205.949 979.899 206.716 980.042 207.483 986.34 221.386 993.879 237.637 1002.85 257.004 1008.1 267.791 1009.1 268.845 1010.44 270.379 1010.91 270.523 1013.63 270.715 1016.35 270.859 1016.92 270.715 1018.88 269.469 1020.17 268.606 1021.36 267.359 1021.89 266.257 1022.46 265.058 1022.7 263.764 1022.55 262.469 1022.41 261.271 1017.78 250.772 1010.53 235.144 1004.04 221.194 998.841 209.593 998.889 209.353 998.984 209.065 1004.66 206.237 1011.44 203.025 1018.26 199.813 1025.37 196.218 1027.18 194.971 1029.04 193.773 1031.76 191.712 1033.29 190.417 1034.82 189.075 1037.01 186.87 1038.2 185.479 1039.4 184.089 1040.97 182.076 1041.69 180.973 1042.45 179.918 1043.88 177.282 1044.93 175.173 1045.98 173.063 1047.32 170.043 1047.84 168.413 1048.37 166.831 1049.18 163.619 1049.61 161.222 1050.23 157.963 1050.37 155.374 1050.18 150.244 1050.04 146.553 1049.61 141.903 1049.18 139.937 1048.75 137.972 1047.84 134.664 1047.18 132.651 1046.51 130.589 1044.88 126.802 1043.55 124.261 1042.26 121.673 1039.97 117.885 1038.49 115.824 1037.01 113.763 1034.1 110.359 1032 108.298 1029.86 106.188 1026.99 103.6 1025.56 102.545 1024.13 101.49 1021.65 99.8605 1019.98 98.9016 1018.36 97.9909 1015.21 96.6005 1013.01 95.8335 1010.82 95.0665 1007.38 94.1078 1005.38 93.7243 1003.14 93.2449 999.414 92.9572 995.835 93.0052 992.066 93.0052 988.487 93.3408 985.911 93.9161Z" fill="#192A56" fill-rule="evenodd"/><path d="M989.527 126.673C987.819 127.007 985.399 127.769 984.071 128.341 982.79 128.913 976.149 131.963 969.366 135.109 962.582 138.301 956.558 141.256 955.989 141.637 955.372 142.066 954.471 143.258 953.949 144.354 953.427 145.402 953 146.927 953 147.69 953 148.452 953.427 149.977 953.901 151.026 954.376 152.122 955.609 153.599 956.605 154.362 957.981 155.41 958.882 155.744 960.542 155.744 962.345 155.744 965.002 154.648 975.77 149.596 982.933 146.26 989.859 143.163 991.139 142.781 992.989 142.209 993.796 142.162 995.266 142.591 996.263 142.877 997.733 143.687 998.492 144.354 999.251 144.974 1000.15 146.308 1000.48 147.309 1000.82 148.262 1001.01 149.882 1001.01 150.883 1000.96 151.884 1000.67 153.17 1000.39 153.742 1000.1 154.314 999.441 155.267 998.919 155.839 998.397 156.411 995.836 157.793 993.274 158.889 990.665 159.985 987.724 161.653 986.68 162.559 985.637 163.464 984.451 164.799 984.071 165.561 983.692 166.276 983.36 167.515 983.36 168.23 983.36 168.945 983.787 170.422 984.261 171.47 984.735 172.567 985.826 173.996 986.633 174.711 987.961 175.807 988.625 175.998 991.187 175.998 993.891 175.998 994.697 175.712 1000.72 172.71 1005.37 170.422 1008.17 168.706 1010.07 166.943 1011.92 165.228 1013.25 163.417 1014.43 161.081 1015.47 158.937 1016.28 156.316 1016.61 154.076 1017.09 151.074 1017.04 149.882 1016.38 146.451 1015.85 144.02 1014.86 141.113 1013.81 139.112 1012.82 137.205 1010.87 134.632 1009.21 132.916 1007.46 131.153 1005.09 129.39 1003.24 128.484 1001.58 127.674 998.919 126.769 997.401 126.483 995.836 126.197 994.128 125.958 993.606 126.006 993.037 126.006 991.234 126.34 989.527 126.673Z" fill="#273C75" fill-rule="evenodd"/><path d="M853.282 156.276C851.553 156.516 848.191 157.283 845.886 157.954 843.532 158.625 840.171 159.776 838.442 160.543 836.713 161.262 822.641 167.782 807.177 174.973 791.713 182.163 778.554 188.492 777.93 189.067 777.305 189.594 776.393 190.936 775.913 191.991 775.432 193.046 775 194.532 775 195.347 775 196.21 787.775 224.11 809.146 269.892 827.924 310.113 843.724 343.718 844.301 344.533 844.877 345.396 846.03 346.45 846.894 346.834 847.711 347.217 849.247 347.553 850.256 347.553 851.265 347.553 853.089 347.074 854.242 346.45 855.443 345.875 856.884 344.677 857.46 343.766 858.228 342.663 858.564 341.417 858.564 339.931 858.564 338.013 854.146 328.281 826.147 268.454 808.378 230.342 793.922 199.038 794.114 198.846 794.306 198.655 806.073 193.141 820.24 186.526 834.407 179.91 847.567 174.062 849.536 173.534 851.553 172.911 855.203 172.384 858.132 172.24 861.398 172.048 864.472 172.192 866.537 172.576 868.362 172.911 871.531 173.774 873.596 174.541 875.613 175.26 878.639 176.65 880.224 177.657 881.857 178.616 884.402 180.438 885.939 181.732 887.428 182.978 889.733 185.375 890.982 187.053 892.23 188.683 894.199 192.039 895.352 194.436 896.505 196.785 897.897 200.62 898.426 202.873 899.098 205.654 899.386 208.722 899.434 212.413 899.482 215.865 899.194 219.124 898.714 221.234 898.281 223.055 897.705 225.213 897.369 226.028 897.081 226.795 896.072 228.952 895.16 230.821 894.247 232.643 892.566 235.376 891.414 236.862 890.261 238.396 888.196 240.601 886.851 241.752 885.507 242.95 883.105 244.628 881.521 245.539 879.984 246.402 877.823 247.744 876.766 248.463 875.71 249.182 874.461 250.477 873.933 251.339 873.308 252.298 872.972 253.736 872.972 255.27 872.972 256.804 873.308 258.243 873.933 259.201 874.413 260.064 875.325 261.071 875.95 261.455 876.574 261.838 892.374 271.042 911.104 281.829 929.834 292.663 946.019 301.771 947.027 302.059 948.372 302.394 949.381 302.394 950.485 302.011 951.35 301.723 952.598 300.908 953.319 300.189 953.991 299.47 954.904 298.08 955.288 297.121 955.72 296.114 956.056 294.676 956.056 293.861 956.056 293.046 955.624 291.56 955.096 290.553 954.615 289.547 953.223 288.109 952.07 287.342 950.965 286.575 937.903 278.952 923.111 270.419L896.168 254.839 899.866 251.244C901.883 249.23 904.765 245.73 906.302 243.382 907.839 241.081 909.904 237.293 910.912 234.992 911.969 232.691 913.362 228.664 914.082 226.028 914.994 222.432 915.427 219.652 915.571 214.906 915.715 211.119 915.619 207.044 915.282 204.647 914.946 202.49 914.13 198.846 913.506 196.593 912.833 194.34 911.248 190.361 909.952 187.82 908.655 185.232 906.59 181.684 905.341 179.91 904.093 178.089 901.211 174.829 898.954 172.528 896.697 170.275 893.191 167.302 891.222 165.912 889.253 164.522 886.179 162.652 884.402 161.741 882.625 160.831 879.503 159.536 877.486 158.865 875.421 158.194 872.156 157.331 870.138 156.948 868.122 156.564 864.231 156.133 861.446 156.037 858.661 155.941 855.011 156.037 853.282 156.276Z" fill="#192A56" fill-rule="evenodd"/><path d="M852.206 189.672C850.925 190.005 843.478 193.294 835.698 196.915 827.918 200.585 820.945 204.159 820.186 204.874 819.427 205.589 818.573 207.019 818.288 208.02 818.004 209.068 817.909 210.498 818.099 211.213 818.241 211.927 818.905 213.452 819.522 214.548 820.281 215.883 821.324 216.836 822.795 217.551 824.36 218.313 825.404 218.504 826.495 218.313 827.349 218.123 834.275 215.073 841.96 211.498 850.308 207.638 856.665 204.922 857.851 204.827 859.321 204.636 860.413 204.874 861.788 205.589 862.879 206.113 864.208 207.209 864.729 207.972 865.299 208.734 865.963 210.402 866.247 211.737 866.769 213.834 866.722 214.358 865.868 215.978 865.299 217.074 863.97 218.456 862.357 219.505 860.934 220.41 858.135 221.888 856.096 222.793 853.676 223.794 851.874 224.985 850.83 226.177 849.929 227.177 848.98 228.798 848.696 229.751 848.411 230.752 848.316 232.086 848.506 232.753 848.648 233.421 849.217 234.564 849.692 235.327 850.214 236.042 851.447 237.043 852.443 237.567 853.487 238.091 855.242 238.52 856.38 238.52 857.519 238.52 859.701 238.091 861.266 237.567 862.784 237.043 866.058 235.47 868.477 234.135 871.56 232.42 873.695 230.799 875.545 228.798 877.11 227.082 878.913 224.461 879.909 222.317 881.38 219.171 881.617 218.218 881.759 214.167 881.901 210.831 881.759 208.83 881.142 206.781 880.716 205.208 879.672 202.777 878.865 201.348 878.059 199.918 876.209 197.535 874.738 196.105 873.315 194.676 870.849 192.817 869.283 191.959 867.718 191.149 865.299 190.148 863.875 189.719 862.452 189.291 859.796 188.957 857.946 189.005 856.096 189.005 853.534 189.291 852.206 189.672Z" fill="#273C75" fill-rule="evenodd"/><path d="M734.029 209.629C732.064 210.539 714.72 218.589 695.507 227.596 676.294 236.556 660.1 244.366 659.477 244.941 658.854 245.515 657.991 246.953 657.56 248.055 657.033 249.396 656.889 250.738 657.081 251.696 657.225 252.559 672.701 286.145 691.434 326.344 710.168 366.543 725.836 399.842 726.315 400.321 726.746 400.8 727.944 401.615 728.998 402.094 730.052 402.573 731.633 403.004 732.543 403.004 733.693 403.004 745.432 397.781 772.79 384.989 794.015 375.119 811.934 366.543 812.509 365.968 813.132 365.393 813.995 364.291 814.378 363.524 814.857 362.566 815.049 361.272 814.905 359.595 814.761 357.822 814.33 356.577 813.42 355.427 812.653 354.421 811.264 353.415 809.97 352.935 808.676 352.408 807.191 352.217 806.185 352.36 805.275 352.504 789.176 359.787 770.442 368.507 751.708 377.227 736.28 384.318 736.185 384.222 736.041 384.127 722.53 355.139 706.048 319.876 689.614 284.564 676.055 255.386 675.959 255.05 675.863 254.619 687.554 248.965 710.072 238.424 735.37 226.59 744.665 222.038 745.623 220.984 746.342 220.17 747.157 218.732 747.396 217.726 747.684 216.624 747.732 215.187 747.492 214.085 747.252 213.127 746.725 211.737 746.246 211.066 745.815 210.396 744.809 209.437 743.946 208.958 742.94 208.335 741.551 208 740.018 208 738.341 208.048 736.52 208.527 734.029 209.629Z" fill="#192A56" fill-rule="evenodd"/><path d="M727.205 247.314C708.102 256.172 702.506 258.964 701.3 260.264 700.48 261.179 699.515 262.768 699.273 263.827 698.888 265.271 698.888 266.186 699.418 267.822 699.804 268.978 702.843 275.766 706.172 282.939 709.549 290.064 712.877 296.949 713.553 298.201 714.469 299.886 715.386 300.752 716.929 301.523 718.473 302.245 719.631 302.485 721.078 302.341 722.332 302.197 729.761 299.019 740.181 294.205 750.505 289.439 757.837 285.732 758.802 284.865 759.67 284.047 760.635 282.506 760.973 281.399 761.31 280.243 761.455 278.703 761.262 277.644 761.069 276.681 760.153 275.092 759.188 273.985 758.127 272.781 756.776 271.915 755.473 271.578 754.074 271.193 752.965 271.193 751.566 271.529 750.505 271.818 743.992 274.659 737.142 277.884 730.292 281.11 724.503 283.517 724.262 283.324 724.069 283.132 722.477 279.906 720.789 276.199 719.052 272.492 717.798 269.315 717.943 269.171 718.135 268.978 726.867 264.886 737.335 260.023 747.803 255.209 757.114 250.684 758.03 250.058 758.898 249.384 760.056 247.891 760.587 246.736 761.262 245.147 761.455 244.088 761.214 242.788 761.021 241.825 760.442 240.333 759.911 239.418 759.333 238.503 758.03 237.444 756.921 236.915 755.811 236.433 754.171 236 753.254 236 752.048 236 744.523 239.274 727.205 247.314Z" fill="#273C75" fill-rule="evenodd"/><path d="M1202.26 258.072C1200.29 258.168 1195.53 258.456 1191.69 258.744 1187.85 259.032 1180.84 259.801 1176.08 260.473 1171.33 261.146 1165.09 262.106 1162.16 262.634 1159.28 263.163 1153.75 264.363 1149.91 265.276 1146.07 266.188 1139.68 267.917 1135.74 269.07 1131.76 270.223 1125.9 272.095 1122.78 273.2 1119.61 274.257 1111.83 277.474 1105.49 280.26 1099.15 283.045 1090.31 287.176 1085.8 289.433 1081.33 291.738 1074.56 295.484 1070.76 297.885 1067.02 300.238 1060.63 304.561 1056.6 307.394 1052.56 310.276 1046.7 314.694 1043.58 317.239 1040.41 319.833 1035.75 323.723 1033.26 325.98 1030.71 328.189 1026.29 332.319 1023.41 335.105 1020.53 337.891 1015.54 343.125 1012.27 346.775 1008.96 350.473 1004.3 355.948 1001.8 359.022 999.351 362.143 995.509 367.138 993.299 370.164 991.09 373.189 987.44 378.616 985.183 382.17 982.926 385.724 980.044 390.382 978.844 392.495 977.691 394.609 975.242 399.027 973.513 402.341 971.784 405.654 969.095 411.273 967.51 414.827 965.925 418.381 962.899 425.969 960.786 431.636 958.673 437.303 955.936 445.083 954.735 448.829 953.486 452.623 951.613 459.203 950.605 463.477 949.548 467.751 948.204 474.187 947.531 477.741 946.859 481.295 945.994 486.721 945.61 489.747 945.178 492.773 944.506 498.296 944.121 501.994 943.689 505.692 943.257 514.336 943.065 521.204 942.921 528.984 943.017 537.052 943.353 542.575 943.641 547.474 944.217 554.149 944.602 557.463 944.986 560.777 945.562 564.955 945.85 566.828 946.138 568.653 946.907 573.119 947.531 576.673 948.156 580.227 949.068 584.405 949.452 585.894 950.029 587.959 950.461 588.68 951.085 588.68 951.565 588.68 955.071 587.287 958.865 585.606 962.611 583.925 983.118 574.464 1004.39 564.523 1025.67 554.63 1048.34 544.064 1054.82 541.038L1066.59 535.563 1066.92 524.758C1067.11 518.851 1067.5 511.791 1067.74 509.101 1068.03 506.412 1068.7 501.994 1069.28 499.256 1069.85 496.519 1071.1 491.62 1072.16 488.306 1073.17 484.993 1074.85 479.998 1075.9 477.164 1076.96 474.331 1078.78 469.672 1080.03 466.743 1081.23 463.861 1083.78 458.819 1085.65 455.553 1087.48 452.287 1090.31 447.821 1091.94 445.564 1093.53 443.306 1096.17 439.849 1097.76 437.88 1099.34 435.91 1102.7 432.165 1105.25 429.523 1107.74 426.93 1111.78 423.136 1114.13 421.071 1116.53 419.054 1121 415.5 1124.07 413.242 1127.19 410.985 1131.61 408.008 1133.92 406.615 1136.22 405.222 1142.61 401.957 1148.13 399.363 1153.66 396.77 1160.14 393.792 1162.59 392.784 1164.99 391.775 1168.74 390.334 1170.95 389.662 1173.11 388.99 1177.43 387.789 1180.55 387.021 1183.62 386.252 1188.33 385.292 1190.97 384.859 1193.61 384.427 1197.74 383.851 1200.1 383.563 1202.5 383.226 1208.74 383.034 1214.02 383.034 1220.84 383.034 1225.79 383.323 1231.07 384.043 1235.16 384.571 1241.54 385.772 1245.24 386.684 1248.94 387.597 1254.8 389.326 1258.21 390.526 1261.67 391.679 1266.28 393.456 1268.53 394.417 1270.79 395.377 1275.11 397.442 1278.14 399.027 1281.16 400.612 1286.35 403.733 1289.66 405.943 1292.98 408.152 1297.49 411.417 1299.75 413.194 1302.01 415.019 1306.57 419.198 1309.88 422.511 1313.25 425.825 1318.24 431.444 1321.07 434.998 1323.91 438.552 1327.51 443.402 1329.09 445.804 1330.68 448.157 1333.7 453.536 1335.82 457.714 1337.93 461.844 1341.48 469.336 1343.69 474.379 1345.9 479.374 1348.35 485.377 1349.17 487.682 1349.94 490.035 1351.23 494.934 1352.05 498.632 1352.82 502.33 1353.97 508.045 1354.5 511.358 1355.12 514.864 1355.65 520.772 1355.8 525.526 1355.94 530.136 1355.84 536.956 1355.51 541.134 1355.22 545.217 1354.6 550.499 1354.21 552.901 1353.83 555.254 1352.72 560.297 1351.81 564.042 1350.9 567.788 1349.41 573.071 1348.45 575.809 1347.49 578.546 1345.57 583.301 1344.17 586.47 1342.73 589.592 1340.28 594.491 1338.7 597.372 1337.11 600.206 1334.42 604.672 1332.7 607.266 1330.97 609.859 1327.65 614.373 1325.35 617.255 1323.04 620.184 1318.62 625.035 1315.6 628.061 1312.57 631.086 1307.72 635.505 1304.79 637.858 1301.91 640.163 1297.45 643.429 1294.95 645.109 1292.45 646.742 1288.42 649.24 1285.97 650.584 1283.57 651.929 1277.95 654.763 1273.48 656.828 1269.06 658.893 1262.43 661.774 1258.83 663.311 1255.18 664.8 1249.37 666.769 1245.87 667.682 1242.36 668.594 1236.36 669.891 1232.51 670.611 1226.51 671.668 1223.77 671.908 1212.92 672.1 1204.71 672.292 1198.42 672.148 1194.91 671.812 1191.93 671.476 1186.41 670.611 1182.57 669.843 1178.58 669.026 1172.19 667.297 1167.68 665.713 1163.31 664.224 1156.92 661.87 1153.46 660.478 1150.01 659.133 1143.67 656.011 1139.35 653.562 1135.07 651.161 1131.37 649.192 1131.13 649.192 1130.89 649.192 1130.7 649.576 1130.7 650.056 1130.7 650.536 1131.56 655.243 1132.62 660.526 1133.68 665.76 1135.07 673.204 1135.74 677.047 1136.37 680.889 1137.38 688.285 1137.9 693.471 1138.62 700.627 1138.86 706.246 1138.86 716.283 1138.86 723.631 1138.62 732.756 1138.43 736.598 1138.19 740.44 1137.52 746.924 1136.94 751.006 1136.42 755.088 1134.83 763.925 1133.49 770.552 1132.19 777.228 1131.18 782.991 1131.32 783.327 1131.47 783.663 1133.82 784.624 1136.51 785.488 1139.25 786.305 1145.11 787.889 1149.48 788.946 1153.85 790.003 1161.2 791.491 1165.86 792.308 1170.47 793.124 1178.01 794.229 1182.62 794.757 1188.67 795.477 1195.29 795.814 1206.58 796.006 1216.19 796.15 1225.26 796.054 1230.11 795.718 1234.48 795.429 1241.45 794.757 1245.63 794.229 1249.8 793.701 1256.82 792.596 1261.23 791.779 1265.6 791.011 1272.57 789.522 1276.7 788.466 1280.78 787.457 1288.08 785.392 1292.83 783.951 1297.64 782.463 1303.88 780.301 1306.76 779.149 1309.64 777.996 1316.75 774.826 1322.56 772.137 1328.37 769.448 1336.25 765.654 1340.09 763.781 1343.93 761.859 1348.54 759.362 1350.37 758.258 1352.15 757.153 1356.61 754.272 1360.21 751.87 1363.82 749.421 1368.38 746.299 1370.35 744.811 1372.32 743.37 1376.45 740.2 1379.47 737.799 1382.5 735.398 1388.02 730.691 1391.72 727.377 1395.42 724.064 1401.47 718.252 1405.17 714.458 1408.86 710.664 1414.29 704.757 1417.17 701.348 1420.1 697.986 1424.28 692.799 1426.49 689.821 1428.7 686.892 1433.17 680.504 1436.38 675.606 1439.65 670.707 1443.83 664.032 1445.7 660.718 1447.62 657.404 1450.74 651.449 1452.66 647.511 1454.58 643.525 1457.08 638.242 1458.14 635.745 1459.19 633.247 1461.45 627.484 1463.18 623.018 1464.86 618.503 1467.36 611.492 1468.7 607.41 1470.05 603.327 1471.83 597.324 1472.64 594.058 1473.46 590.793 1474.85 584.405 1475.76 579.891 1476.63 575.328 1477.83 568.509 1478.36 564.667 1478.93 560.825 1479.7 554.005 1480.09 549.539 1480.52 544.688 1480.81 535.804 1480.81 527.591 1480.81 519.571 1480.52 510.11 1480.09 504.923 1479.7 500.025 1478.93 493.109 1478.41 489.603 1477.92 486.097 1476.92 480.286 1476.24 476.732 1475.52 473.178 1473.99 466.407 1472.83 461.652 1471.63 456.898 1468.94 447.917 1466.88 441.673 1464.81 435.478 1461.79 427.266 1460.16 423.424 1458.52 419.63 1455.11 412.33 1452.62 407.239 1450.07 402.149 1446.18 394.945 1443.92 391.151 1441.71 387.405 1438.11 381.642 1435.95 378.328 1433.79 375.014 1429.56 369.059 1426.54 365.121 1423.56 361.135 1419.57 356.092 1417.65 353.835 1415.73 351.578 1411.36 346.727 1407.95 343.029 1404.54 339.331 1399.26 334 1396.23 331.215 1393.21 328.429 1388.31 324.059 1385.33 321.514 1382.35 318.968 1377.84 315.27 1375.25 313.349 1372.7 311.38 1369.1 308.739 1367.23 307.442 1365.4 306.098 1361.08 303.264 1357.72 301.103 1354.31 298.894 1348.4 295.34 1344.51 293.131 1340.62 290.922 1334.81 287.8 1331.59 286.167 1328.37 284.582 1322.61 281.941 1318.86 280.308 1315.07 278.675 1308.88 276.226 1305.03 274.833 1301.19 273.392 1294.9 271.279 1291.01 270.078 1287.12 268.878 1280.54 267.053 1276.36 265.996 1272.18 264.94 1266.61 263.643 1263.92 263.115 1261.28 262.587 1256.43 261.674 1253.12 261.146 1249.85 260.617 1242.94 259.753 1237.8 259.225 1232.37 258.648 1223.73 258.168 1217.15 258.072 1210.95 257.976 1204.23 257.976 1202.26 258.072Z" fill="#FFC000" fill-rule="evenodd"/><path d="M854.423 271.675C853.606 272.061 852.501 272.93 851.924 273.653 851.347 274.377 850.627 275.824 850.338 276.789 850.002 277.802 849.906 279.346 850.098 280.262 850.29 281.13 855.576 292.901 861.872 306.457 869.705 323.244 873.79 331.542 874.799 332.603 875.664 333.471 877.058 334.291 878.019 334.484 878.932 334.629 880.422 334.629 881.335 334.484 882.248 334.291 883.642 333.664 884.507 333.085 885.372 332.506 886.573 331.397 887.102 330.673 887.775 329.708 888.111 328.599 888.111 327.055 888.111 325.174 887.102 322.569 882.2 312.052 878.98 305.058 876.385 299.221 876.529 299.124 876.625 299.028 884.171 303.273 893.253 308.627 902.288 313.934 910.506 318.565 911.515 318.854 912.476 319.144 914.014 319.24 914.975 319.047 915.888 318.854 917.378 318.131 918.195 317.455 919.012 316.732 920.021 315.429 920.358 314.561 920.742 313.693 921.03 312.004 921.03 310.798 921.03 309.592 920.694 307.952 920.309 307.18 919.925 306.408 918.868 305.251 918.051 304.623 917.186 303.948 904.691 296.616 890.274 288.27 875.857 279.924 863.17 272.592 862.064 272.013 860.911 271.434 859.181 271 857.979 271 856.826 271.048 855.24 271.338 854.423 271.675Z" fill="#273C75" fill-rule="evenodd"/><path d="M596.372 275.558C594.402 275.944 590.797 276.908 588.346 277.679 585.895 278.498 570.133 285.582 553.265 293.437 536.397 301.292 522.076 308.183 521.451 308.761 520.826 309.291 520.009 310.448 519.673 311.315 519.288 312.183 519 313.676 519 314.64 519 315.99 527.362 334.35 553.169 389.961 572.007 430.393 587.77 464.077 588.25 464.752 588.731 465.475 590.028 466.391 591.086 466.824 592.143 467.258 593.633 467.595 594.353 467.595 595.074 467.595 596.564 467.162 597.621 466.68 598.727 466.198 600.168 464.993 600.889 464.077 601.61 463.162 602.283 461.668 602.427 460.752 602.619 459.74 602.379 458.246 601.754 456.753 601.274 455.403 586.616 423.79 569.268 386.443 551.871 349.096 537.838 318.399 538.079 318.158 538.271 317.965 550.045 312.375 564.174 305.773 578.302 299.171 591.278 293.292 593.008 292.762 594.738 292.184 597.766 291.461 599.736 291.172 601.706 290.883 604.878 290.738 606.704 290.931 608.578 291.075 611.366 291.509 612.952 291.943 614.537 292.328 617.805 293.63 620.16 294.834 622.563 295.991 625.879 298.159 627.561 299.605 629.195 301.051 631.598 303.412 632.847 304.858 634.049 306.352 635.779 308.713 636.644 310.207 637.557 311.653 638.998 314.544 639.864 316.616 640.776 318.688 641.978 322.64 642.507 325.435 643.372 329.531 643.516 331.459 643.276 335.555 643.131 338.35 642.651 341.916 642.218 343.506 641.786 345.096 640.776 347.891 639.912 349.771 639.047 351.602 637.316 354.445 636.115 356.036 634.914 357.626 632.847 359.891 631.502 360.999 630.156 362.156 627.705 363.89 626.023 364.902 624.389 365.914 615.931 370.059 607.281 374.107 595.987 379.408 591.182 381.865 590.365 382.877 589.74 383.648 588.971 385.142 588.683 386.202 588.394 387.311 588.298 388.756 588.442 389.527 588.587 390.25 594.978 404.274 602.571 420.658 610.212 437.091 616.94 451.066 617.613 451.741 618.238 452.464 619.631 453.283 620.737 453.62 621.842 453.957 623.476 454.102 624.389 453.909 625.302 453.717 626.792 453.09 627.657 452.512 628.57 451.934 629.772 450.681 630.396 449.765 631.309 448.367 631.502 447.645 631.309 445.669 631.165 443.789 628.474 437.573 619.247 417.911 612.759 403.936 607.425 392.323 607.425 392.13 607.425 391.889 612.904 389.142 619.631 386.01 626.359 382.877 633.856 378.974 636.355 377.384 639.143 375.552 642.411 372.854 645.15 370.059 647.985 367.167 650.34 364.131 651.974 361.336 653.367 358.975 655.194 355.313 656.011 353.192 656.828 351.024 657.933 347.217 658.462 344.711 659.279 340.904 659.375 338.928 659.182 332.663 658.99 326.881 658.654 324.086 657.741 320.327 657.068 317.676 656.059 314.303 655.482 312.857 654.905 311.46 653.56 308.52 652.503 306.4 651.445 304.28 649.523 301.051 648.274 299.171 647.024 297.34 644.573 294.256 642.843 292.377 641.113 290.497 638.182 287.702 636.307 286.208 634.481 284.714 631.261 282.498 629.243 281.341 627.177 280.136 623.524 278.546 621.169 277.775 618.766 277.004 615.595 276.088 614.153 275.799 612.711 275.51 608.915 275.173 605.743 275.028 601.995 274.932 598.727 275.076 596.372 275.558Z" fill="#192A56" fill-rule="evenodd"/><path d="M747.256 308.836C737.947 313.11 729.79 317.004 729.119 317.431 728.447 317.859 727.439 319.046 726.912 320.043 726.432 321.04 726 322.75 726 323.89 726 325.504 727.439 328.971 733.053 340.891 736.892 349.106 740.49 356.42 740.97 357.179 741.498 357.892 742.601 358.842 743.417 359.269 744.281 359.696 745.912 360.076 747.112 360.076 748.935 360.076 752.965 358.367 772.781 349.249 785.736 343.265 796.964 337.994 797.731 337.519 798.547 337.044 799.698 335.762 800.322 334.717 801.234 333.15 801.378 332.248 801.234 330.348 801.09 329.066 800.562 327.451 800.034 326.739 799.555 326.074 798.547 325.077 797.827 324.554 797.012 323.937 795.572 323.557 793.797 323.462 791.062 323.272 790.726 323.415 771.102 332.533L751.19 341.793 748.167 335.524C746.536 332.105 745.048 328.876 744.952 328.354 744.713 327.451 746.152 326.691 757.763 321.42 765.344 317.954 771.342 314.962 772.11 314.202 772.829 313.442 773.693 312.112 773.981 311.163 774.317 310.213 774.461 308.551 774.317 307.506 774.173 306.461 773.645 305.037 773.117 304.372 772.637 303.707 771.486 302.662 770.622 302.045 769.471 301.285 768.367 301 766.592 301 764.433 301.048 762.034 301.997 747.256 308.836Z" fill="#273C75" fill-rule="evenodd"/><path d="M596.546 308.734C595.101 309.123 590.523 311.02 586.427 312.916 582.33 314.813 575.825 317.876 571.969 319.724 568.114 321.524 564.307 323.517 563.488 324.198 562.524 324.976 561.753 326.192 561.368 327.651 560.886 329.401 560.886 330.277 561.32 331.833 561.657 332.854 562.524 334.459 563.295 335.383 564.115 336.258 565.416 337.279 566.187 337.62 567.006 337.96 568.548 338.106 569.704 337.96 570.861 337.814 577.511 334.994 585.752 331.104 597.076 325.754 600.209 324.49 601.895 324.49 603.197 324.49 604.642 324.879 605.654 325.511 606.57 326.046 607.678 326.97 608.16 327.554 608.642 328.137 609.269 329.547 609.558 330.714 609.895 332.173 609.895 333.341 609.558 334.654 609.269 335.723 608.401 337.231 607.534 338.057 606.714 338.836 604.209 340.294 601.944 341.267 599.679 342.191 596.835 343.747 595.583 344.671 594.33 345.595 592.932 347.103 592.498 348.026 592.065 348.95 591.727 350.215 591.727 350.847 591.727 351.528 592.306 353.23 593.077 354.64 593.944 356.391 594.908 357.558 596.064 358.141 597.317 358.822 598.426 359.017 600.305 358.871 602.281 358.725 604.449 357.898 609.702 355.224 613.798 353.181 617.461 350.944 618.81 349.68 620.063 348.513 621.846 346.324 622.762 344.768 623.677 343.164 624.786 340.392 625.171 338.592 625.605 336.744 625.942 334.41 625.942 333.389 625.942 332.368 625.605 329.985 625.219 328.137 624.834 326.241 623.725 323.177 622.762 321.232 621.75 319.335 619.87 316.612 618.521 315.25 617.22 313.889 614.907 312.041 613.461 311.165 611.967 310.242 609.606 309.172 608.16 308.734 606.714 308.296 604.112 307.956 602.377 308.005 600.643 308.005 597.992 308.345 596.546 308.734Z" fill="#273C75" fill-rule="evenodd"/><path d="M833.72 437.199C833.048 437.295 829.403 437.583 825.566 437.871 821.728 438.207 814.294 439.166 809.017 440.029 803.693 440.941 796.786 442.236 793.668 442.908 790.503 443.579 785.083 444.875 781.581 445.786 778.08 446.745 771.508 448.76 766.904 450.343 762.299 451.926 754.481 454.9 749.492 457.011 744.504 459.074 736.59 462.528 731.841 464.686 727.14 466.845 720.665 470.011 717.451 471.738 714.286 473.465 707.858 477.303 703.254 480.181 698.649 483.059 692.749 486.993 690.111 488.816 687.521 490.686 682.628 494.38 679.319 497.019 676.009 499.657 670.781 503.974 667.759 506.661 664.737 509.299 659.317 514.384 655.768 517.982 652.218 521.532 646.606 527.72 643.297 531.653 639.987 535.635 635.622 541.008 633.608 543.694 631.593 546.332 628.091 551.321 625.885 554.727 623.631 558.133 620.177 563.794 618.115 567.344 616.1 570.845 612.886 576.89 610.968 580.775 609.049 584.613 606.171 590.993 604.54 594.974 602.958 598.908 600.224 606.152 598.497 610.997 596.722 615.842 594.372 623.085 593.221 627.115 592.069 631.096 590.343 637.764 589.383 641.842 588.424 645.967 587.129 652.539 586.457 656.425 585.786 660.358 584.875 667.794 584.347 672.927 583.819 678.059 583.244 685.927 583.1 690.436 582.908 694.897 583.004 703.004 583.292 708.425 583.579 713.845 584.155 721.185 584.539 724.735 584.971 728.285 585.93 735 586.745 739.558 587.513 744.163 589.048 751.502 590.103 755.868 591.206 760.281 593.221 767.812 594.611 772.705 596.003 777.598 598.257 784.554 599.6 788.104 600.895 791.702 603.773 798.466 605.931 803.215 608.042 807.916 611.735 815.687 614.038 820.436 616.388 825.185 620.705 833.052 623.631 837.945 626.557 842.839 631.353 850.226 634.327 854.351 637.301 858.477 641.138 863.658 642.865 865.864 644.64 868.071 648.189 872.34 650.779 875.362 653.369 878.385 658.79 884.141 662.818 888.171 666.848 892.2 672.795 897.669 676.057 900.355 679.271 903.041 684.739 907.359 688.144 909.901 691.598 912.492 696.874 916.185 699.896 918.2 702.918 920.167 708.338 923.477 711.887 925.492 715.437 927.554 721.48 930.768 725.318 932.687 729.155 934.606 734.527 937.196 737.309 938.444 740.091 939.691 745.607 941.994 749.54 943.529 753.521 945.112 760.86 947.654 765.848 949.189 770.885 950.772 778.367 952.787 782.589 953.794 786.762 954.754 793.525 956.145 797.698 956.912 801.823 957.68 809.401 958.783 814.533 959.359 822.496 960.27 826.381 960.462 840.435 960.462 852.714 960.462 858.998 960.27 864.753 959.647 869.022 959.215 876.361 958.16 881.062 957.392 885.762 956.577 893.485 955.042 898.233 953.986 902.982 952.883 910.177 951.06 914.158 949.909 918.187 948.758 924.758 946.647 928.788 945.208 932.816 943.816 939.484 941.322 943.561 939.643 947.638 938.012 954.305 935.182 958.334 933.359 962.363 931.536 968.263 928.706 971.477 927.123 974.691 925.492 979.919 922.757 983.084 920.935 986.298 919.16 990.855 916.521 993.205 915.082 995.603 913.643 999.776 911.005 1002.56 909.182 1005.34 907.407 1009.42 904.625 1011.67 903.041 1013.93 901.41 1018.29 898.101 1021.46 895.606 1024.57 893.112 1029.99 888.554 1033.45 885.436 1036.9 882.366 1041.99 877.473 1044.77 874.595 1047.55 871.717 1051.77 867.112 1054.17 864.329 1056.52 861.547 1060.31 856.894 1062.56 854.016 1064.82 851.089 1068.22 846.436 1070.09 843.606 1072.01 840.776 1074.75 836.506 1076.19 834.108 1077.62 831.757 1080.21 827.2 1081.94 824.034 1083.67 820.868 1086.4 815.399 1087.99 811.945 1089.66 808.3 1093.17 798.849 1096.14 789.975 1098.97 781.388 1101.99 772.034 1102.76 769.156 1103.57 766.277 1104.87 760.041 1105.64 755.244 1106.45 750.495 1107.46 743.731 1107.89 740.325 1108.51 735.624 1108.71 730.252 1108.71 718.499 1108.75 706.794 1108.56 701.037 1107.94 695.473 1107.46 691.395 1106.64 685.207 1106.12 681.801 1105.54 678.347 1104.58 673.07 1103.96 670.048 1103.29 667.026 1102.09 661.941 1101.32 658.775 1100.5 655.609 1099.02 649.997 1097.96 646.303 1096.91 642.609 1094.6 636.037 1092.88 631.672 1091.15 627.307 1087.51 618.768 1084.82 612.724 1082.13 606.631 1076.71 594.879 1072.88 586.58 1068.99 578.281 1065.63 571.325 1065.44 571.085 1065.25 570.893 1026.16 588.882 978.528 611.093 930.946 633.255 891.806 651.628 891.566 651.82 891.326 652.059 898.809 668.705 909.266 691.108 919.242 712.502 927.492 730.012 927.636 730.012 927.78 730.012 939.867 724.495 954.545 717.731 969.222 710.967 984.14 704.108 987.689 702.524 991.862 700.654 995.028 699.55 996.563 699.454 998.241 699.263 999.776 699.502 1001.7 700.27 1003.18 700.798 1005.24 702.093 1006.3 703.1 1007.31 704.108 1008.75 706.122 1009.47 707.609 1010.23 709.144 1011 711.735 1011.24 713.798 1011.48 715.716 1011.58 719.794 1011.43 722.816 1011.29 725.838 1010.95 730.587 1010.66 733.37 1010.38 736.152 1009.66 741.141 1008.99 744.499 1008.31 747.857 1006.97 753.086 1005.92 756.108 1004.86 759.13 1003.13 763.831 1002.03 766.565 1000.98 769.299 999.009 773.617 997.666 776.159 996.371 778.75 993.781 783.067 992.006 785.753 990.183 788.488 986.826 793.045 984.523 795.971 982.221 798.849 977.904 803.598 975.026 806.525 972.1 809.403 967.016 813.96 963.706 816.598 960.397 819.237 955.456 822.931 952.674 824.801 949.892 826.672 944.712 829.886 941.163 831.997 937.613 834.06 931.378 837.322 927.3 839.289 923.271 841.207 916.221 844.374 911.712 846.34 907.203 848.259 901.591 850.514 899.193 851.377 896.842 852.193 892.238 853.632 889.024 854.543 885.81 855.455 880.678 856.702 877.608 857.374 874.538 858.045 869.166 859.052 865.713 859.58 861.3 860.252 855.928 860.635 847.87 860.827 840.675 860.971 834.199 860.875 830.602 860.54 827.436 860.252 822.256 859.532 819.09 859.005 815.925 858.477 810.84 857.374 807.818 856.606 804.797 855.79 799.424 854.064 795.923 852.768 792.421 851.473 786.762 849.123 783.356 847.54 779.95 845.956 774.626 843.222 771.508 841.495 768.391 839.768 764.122 837.178 762.011 835.739 759.901 834.348 755.824 831.326 752.946 829.119 750.068 826.864 745.463 823.027 742.729 820.628 739.995 818.182 736.062 814.344 733.999 812.089 731.985 809.835 728.867 806.237 727.14 804.126 725.414 802.016 722.871 798.657 721.432 796.691 719.993 794.724 717.26 790.694 715.389 787.768 713.47 784.794 710.113 778.75 707.858 774.288 705.652 769.827 702.294 762.632 700.471 758.266 698.649 753.949 696.107 747.281 694.86 743.443 693.612 739.606 691.982 733.801 691.214 730.491 690.495 727.181 689.295 721.233 688.624 717.299 687.665 711.783 687.329 707.753 687.089 700.03 686.945 694.082 687.041 687.078 687.377 683 687.665 679.163 688.24 673.79 688.672 671.008 689.056 668.225 690.015 663.38 690.783 660.214 691.55 657.048 693.229 651.34 694.524 647.502 695.867 643.665 697.833 638.292 698.937 635.51 700.04 632.727 702.15 628.122 703.589 625.196 705.076 622.318 707.427 618 708.865 615.602 710.352 613.251 712.943 609.27 714.621 606.775 716.348 604.329 719.418 600.299 721.384 597.901 723.399 595.502 727.476 591.137 730.45 588.163 733.424 585.189 738.268 580.823 741.146 578.473 744.072 576.074 748.437 572.764 750.883 571.037 753.33 569.358 757.646 566.528 760.524 564.753 763.402 562.978 768.774 560.004 772.516 558.085 776.209 556.166 782.493 553.24 786.426 551.609 790.359 549.93 796.307 547.627 799.664 546.476 803.022 545.373 808.298 543.79 811.464 542.974 814.582 542.207 820.098 541.008 823.647 540.336 827.196 539.664 833.288 538.801 837.173 538.369 841.059 537.985 847.342 537.65 851.083 537.65 854.873 537.65 860.532 537.89 863.698 538.129 866.864 538.417 872.14 539.089 875.45 539.616 878.759 540.144 883.892 541.2 886.866 542.015 889.887 542.782 895.931 544.605 900.296 545.997 904.709 547.388 909.026 548.731 909.889 548.923 910.896 549.115 911.712 549.019 912.143 548.683 912.719 548.203 912.863 546.045 912.863 536.498 912.863 530.166 913.103 520.188 913.343 514.384 913.582 508.58 914.158 500.568 914.542 496.635 914.973 492.653 915.741 486.753 916.268 483.443 916.796 480.181 918.475 470.971 920.058 463.007 921.641 454.996 922.792 448.184 922.648 447.801 922.504 447.417 920.49 446.553 917.995 445.882 915.549 445.162 910.656 443.963 907.107 443.196 903.558 442.428 897.418 441.229 893.437 440.557 889.504 439.886 883.652 439.022 880.486 438.638 877.32 438.207 871.181 437.679 866.816 437.391 862.451 437.151 853.53 436.96 846.91 437.007 840.339 437.007 834.391 437.103 833.72 437.199Z" fill="#192A56" fill-rule="evenodd"/><path d="M1144 487.087C1144 487.183 1144.63 488.765 1145.4 490.586 1146.17 492.408 1148.53 497.68 1150.65 502.282 1152.78 506.884 1160.34 523.182 1167.53 538.473 1174.66 553.764 1184.5 574.663 1189.32 584.969 1194.14 595.227 1198.15 603.711 1198.19 603.759 1198.29 603.855 1199.69 601.89 1201.42 599.445 1203.11 597.049 1219.55 573.561 1237.97 547.34 1256.34 521.12 1271.48 499.406 1271.62 499.118 1271.72 498.783 1270.9 498.447 1269.5 498.303 1268.25 498.112 1240.53 495.619 1207.88 492.695 1175.29 489.819 1147.57 487.326 1146.31 487.135 1145.01 486.991 1144 486.943 1144 487.087Z" fill="#FFC000" fill-rule="evenodd"/><path d="M1315.29 1025.03C1315.14 1025.04 1314.71 1025.09 1314.33 1025.13 1313.94 1025.17 1313.19 1025.29 1312.65 1025.4 1312.12 1025.51 1311.36 1025.7 1310.98 1025.81 1310.61 1025.93 1310.01 1026.13 1309.67 1026.26 1309.32 1026.39 1308.65 1026.69 1308.17 1026.93 1307.7 1027.16 1307.04 1027.51 1306.7 1027.71 1306.38 1027.91 1305.82 1028.28 1305.47 1028.52 1305.13 1028.77 1304.6 1029.17 1304.31 1029.41 1304.01 1029.66 1303.54 1030.07 1303.26 1030.33 1302.98 1030.59 1302.47 1031.13 1302.12 1031.53 1301.78 1031.93 1301.33 1032.48 1301.13 1032.74 1300.92 1033.01 1300.51 1033.61 1300.21 1034.07 1299.91 1034.54 1299.41 1035.47 1299.08 1036.15 1298.76 1036.83 1298.35 1037.78 1298.18 1038.27 1298.01 1038.75 1297.76 1039.63 1297.61 1040.19 1297.47 1040.77 1297.3 1041.67 1297.22 1042.19 1297.14 1042.71 1297.06 1043.67 1297.03 1044.31 1296.99 1044.94 1296.99 1045.97 1297.03 1046.58 1297.06 1047.19 1297.11 1047.93 1297.15 1048.23 1297.18 1048.52 1297.26 1049.05 1297.32 1049.39 1297.38 1049.73 1297.52 1050.41 1297.65 1050.9 1297.77 1051.39 1298.01 1052.17 1298.18 1052.65 1298.34 1053.12 1298.64 1053.87 1298.84 1054.32 1299.03 1054.77 1299.38 1055.47 1299.61 1055.88 1299.84 1056.3 1300.23 1056.92 1300.47 1057.28 1300.71 1057.64 1301.13 1058.22 1301.41 1058.58 1301.68 1058.93 1302.28 1059.61 1302.74 1060.08 1303.2 1060.55 1303.86 1061.17 1304.21 1061.46 1304.56 1061.75 1305.21 1062.22 1305.65 1062.52 1306.08 1062.82 1306.8 1063.27 1307.24 1063.51 1307.68 1063.76 1308.43 1064.13 1308.91 1064.33 1309.38 1064.54 1310.11 1064.83 1310.53 1064.96 1310.95 1065.1 1311.67 1065.3 1312.13 1065.41 1312.59 1065.51 1313.27 1065.65 1313.66 1065.71 1314.05 1065.77 1314.84 1065.84 1315.42 1065.89 1316.03 1065.93 1316.92 1065.94 1317.49 1065.92 1318.04 1065.9 1318.87 1065.84 1319.34 1065.77 1319.81 1065.72 1320.56 1065.6 1321 1065.5 1321.45 1065.41 1322.17 1065.22 1322.61 1065.09 1323.05 1064.95 1323.78 1064.7 1324.24 1064.5 1324.7 1064.31 1325.49 1063.94 1326 1063.68 1326.51 1063.41 1327.32 1062.93 1327.8 1062.61 1328.28 1062.29 1328.92 1061.81 1329.24 1061.55 1329.55 1061.3 1330.05 1060.85 1330.36 1060.57 1330.65 1060.28 1331.19 1059.72 1331.55 1059.31 1331.91 1058.9 1332.45 1058.2 1332.76 1057.76 1333.08 1057.33 1333.5 1056.67 1333.71 1056.32 1333.92 1055.96 1334.3 1055.23 1334.56 1054.68 1334.82 1054.14 1335.15 1053.33 1335.32 1052.87 1335.49 1052.42 1335.71 1051.72 1335.82 1051.3 1335.93 1050.89 1336.09 1050.17 1336.19 1049.7 1336.28 1049.23 1336.4 1048.41 1336.46 1047.88 1336.51 1047.32 1336.56 1046.3 1336.56 1045.48 1336.56 1044.69 1336.53 1043.74 1336.49 1043.35 1336.45 1042.96 1336.36 1042.25 1336.29 1041.78 1336.21 1041.31 1336.05 1040.51 1335.91 1040.01 1335.79 1039.5 1335.53 1038.67 1335.35 1038.16 1335.17 1037.66 1334.77 1036.72 1334.46 1036.08 1334.16 1035.44 1333.64 1034.5 1333.3 1034 1332.98 1033.49 1332.45 1032.74 1332.13 1032.34 1331.81 1031.94 1331.21 1031.26 1330.79 1030.83 1330.38 1030.4 1329.72 1029.79 1329.32 1029.46 1328.93 1029.14 1328.28 1028.65 1327.87 1028.37 1327.47 1028.1 1326.81 1027.69 1326.41 1027.47 1326.01 1027.23 1325.37 1026.91 1324.99 1026.74 1324.61 1026.56 1323.91 1026.28 1323.43 1026.11 1322.95 1025.94 1322.14 1025.7 1321.62 1025.57 1321.11 1025.44 1320.37 1025.29 1319.98 1025.23 1319.6 1025.17 1318.94 1025.09 1318.52 1025.06 1318.1 1025.02 1317.26 1024.99 1316.66 1025 1316.05 1025.01 1315.44 1025.02 1315.29 1025.03ZM1319.35 1031.12C1319.76 1031.2 1320.41 1031.36 1320.82 1031.48 1321.22 1031.6 1321.89 1031.84 1322.31 1032.03 1322.72 1032.2 1323.39 1032.54 1323.77 1032.77 1324.16 1033 1324.75 1033.39 1325.08 1033.64 1325.41 1033.9 1325.99 1034.42 1326.38 1034.82 1326.77 1035.21 1327.26 1035.78 1327.49 1036.08 1327.71 1036.38 1328.03 1036.86 1328.2 1037.14 1328.38 1037.42 1328.68 1037.97 1328.87 1038.37 1329.06 1038.77 1329.32 1039.37 1329.46 1039.71 1329.59 1040.05 1329.77 1040.6 1329.86 1040.94 1329.95 1041.27 1330.08 1041.78 1330.13 1042.08 1330.19 1042.36 1330.28 1042.99 1330.34 1043.48 1330.39 1043.95 1330.44 1044.85 1330.44 1045.47 1330.44 1046.09 1330.39 1046.99 1330.34 1047.48 1330.28 1047.97 1330.16 1048.72 1330.06 1049.15 1329.97 1049.59 1329.78 1050.26 1329.66 1050.66 1329.53 1051.05 1329.24 1051.78 1329 1052.28 1328.77 1052.78 1328.38 1053.51 1328.13 1053.89 1327.89 1054.27 1327.51 1054.82 1327.28 1055.1 1327.06 1055.38 1326.61 1055.88 1326.27 1056.22 1325.95 1056.54 1325.42 1057.01 1325.12 1057.25 1324.82 1057.48 1324.26 1057.86 1323.89 1058.09 1323.52 1058.31 1322.94 1058.62 1322.61 1058.77 1322.28 1058.92 1321.68 1059.16 1321.28 1059.29 1320.88 1059.43 1320.19 1059.62 1319.75 1059.7 1319.31 1059.79 1318.64 1059.9 1318.25 1059.95 1317.82 1060 1317.09 1060.02 1316.32 1059.99 1315.54 1059.97 1314.82 1059.9 1314.33 1059.81 1313.91 1059.74 1313.2 1059.57 1312.76 1059.44 1312.32 1059.31 1311.61 1059.05 1311.18 1058.86 1310.74 1058.67 1310.11 1058.34 1309.75 1058.13 1309.39 1057.92 1308.81 1057.52 1308.47 1057.25 1308.12 1056.99 1307.53 1056.46 1307.16 1056.07 1306.79 1055.69 1306.28 1055.09 1306.02 1054.74 1305.77 1054.39 1305.42 1053.89 1305.27 1053.63 1305.11 1053.36 1304.79 1052.75 1304.56 1052.25 1304.33 1051.76 1304.02 1050.98 1303.87 1050.52 1303.73 1050.07 1303.54 1049.32 1303.45 1048.86 1303.36 1048.41 1303.25 1047.66 1303.2 1047.22 1303.16 1046.71 1303.14 1045.87 1303.16 1044.96 1303.18 1044.16 1303.25 1043.21 1303.31 1042.81 1303.37 1042.42 1303.5 1041.76 1303.6 1041.35 1303.71 1040.93 1303.9 1040.28 1304.04 1039.91 1304.17 1039.53 1304.47 1038.85 1304.68 1038.4 1304.9 1037.95 1305.3 1037.25 1305.57 1036.83 1305.84 1036.42 1306.3 1035.8 1306.6 1035.45 1306.9 1035.1 1307.42 1034.57 1307.76 1034.27 1308.09 1033.97 1308.65 1033.52 1309 1033.28 1309.35 1033.04 1309.89 1032.71 1310.21 1032.53 1310.52 1032.36 1311.08 1032.1 1311.43 1031.95 1311.79 1031.8 1312.4 1031.59 1312.79 1031.47 1313.17 1031.36 1313.83 1031.21 1314.23 1031.13 1314.63 1031.06 1315.06 1030.99 1315.19 1030.97 1315.32 1030.95 1316.14 1030.95 1317.02 1030.96 1318.31 1030.97 1318.76 1031 1319.35 1031.12Z" fill="#01579B" fill-rule="evenodd"/><path d="M968 1045.48 968 1064.97 969.078 1064.97 970.155 1064.97 970.155 1057.51 970.155 1050.05 978.09 1050.03C985.957 1050.01 986.024 1050.01 986.657 1049.86 987.008 1049.78 987.573 1049.62 987.917 1049.51 988.26 1049.39 988.826 1049.14 989.183 1048.95 989.533 1048.77 990.099 1048.42 990.443 1048.18 990.786 1047.94 991.392 1047.44 991.783 1047.05 992.18 1046.66 992.686 1046.1 992.915 1045.79 993.144 1045.48 993.494 1044.96 993.703 1044.62 993.905 1044.28 994.228 1043.65 994.41 1043.22 994.592 1042.79 994.834 1042.15 994.942 1041.79 995.05 1041.42 995.205 1040.77 995.292 1040.34 995.42 1039.68 995.44 1039.34 995.44 1038.09 995.44 1036.97 995.413 1036.48 995.326 1036.01 995.258 1035.67 995.131 1035.13 995.036 1034.81 994.949 1034.49 994.794 1034.01 994.693 1033.76 994.598 1033.5 994.356 1032.96 994.154 1032.56 993.952 1032.16 993.561 1031.5 993.292 1031.1 993.022 1030.69 992.551 1030.08 992.248 1029.74 991.951 1029.41 991.426 1028.9 991.083 1028.62 990.739 1028.34 990.214 1027.95 989.917 1027.75 989.614 1027.56 989.069 1027.25 988.705 1027.07 988.334 1026.89 987.796 1026.67 987.506 1026.57 987.21 1026.47 986.704 1026.33 986.374 1026.26 986.051 1026.19 985.425 1026.1 984.987 1026.07 984.536 1026.03 980.75 1026 976.103 1026L968 1026 968 1045.48ZM985.357 1028.2C985.586 1028.24 986.038 1028.34 986.368 1028.44 986.691 1028.53 987.21 1028.72 987.52 1028.86 987.829 1029.01 988.375 1029.32 988.732 1029.55 989.089 1029.78 989.594 1030.16 989.843 1030.39 990.099 1030.62 990.497 1031.02 990.739 1031.28 990.975 1031.54 991.338 1032 991.534 1032.29 991.736 1032.59 992.052 1033.13 992.234 1033.49 992.423 1033.86 992.665 1034.42 992.773 1034.73 992.888 1035.05 993.049 1035.63 993.137 1036.03 993.265 1036.65 993.292 1036.94 993.292 1038.02 993.292 1038.96 993.258 1039.45 993.171 1039.89 993.103 1040.22 992.975 1040.75 992.888 1041.06 992.8 1041.37 992.585 1041.96 992.416 1042.36 992.248 1042.76 991.985 1043.29 991.83 1043.55 991.675 1043.81 991.392 1044.25 991.197 1044.52 991.002 1044.8 990.625 1045.25 990.348 1045.52 990.079 1045.8 989.601 1046.22 989.291 1046.44 988.974 1046.67 988.415 1047 988.045 1047.18 987.668 1047.36 987.109 1047.58 986.792 1047.68 986.475 1047.76 985.95 1047.87 985.613 1047.91 985.203 1047.96 982.582 1047.98 977.585 1047.98L970.155 1047.98 970.155 1038.06 970.155 1028.13 977.551 1028.13C982.158 1028.13 985.095 1028.16 985.357 1028.2Z" fill="#01579B" fill-rule="evenodd"/><path d="M1000 1045.48 1000 1064.97 1013.15 1064.97 1026.31 1064.97 1026.31 1063.94 1026.31 1062.9 1014.23 1062.9 1002.16 1062.9 1002.16 1054.51 1002.16 1046.12 1012.51 1046.12 1022.87 1046.12 1022.87 1045.08 1022.87 1044.05 1012.51 1044.05 1002.16 1044.05 1002.16 1036.09 1002.16 1028.13 1013.96 1028.13 1025.77 1028.13 1025.77 1027.07 1025.77 1026 1012.88 1026 1000 1026 1000 1045.48Z" fill="#01579B" fill-rule="evenodd"/><path d="M1033 1045.48 1033 1064.97 1034.11 1064.97 1035.22 1064.97 1035.22 1057.51 1035.22 1050.05 1041.91 1050.05 1048.61 1050.05 1053.47 1057.51 1058.34 1064.97 1059.42 1064.97C1060 1064.97 1060.47 1064.95 1060.46 1064.92 1060.44 1064.89 1058.26 1061.52 1055.6 1057.44L1050.78 1050.02 1051.44 1049.91C1051.81 1049.85 1052.36 1049.72 1052.67 1049.62 1052.98 1049.51 1053.6 1049.25 1054.05 1049.04 1054.49 1048.82 1055.15 1048.44 1055.5 1048.2 1055.85 1047.95 1056.49 1047.4 1056.91 1046.98 1057.34 1046.56 1057.89 1045.93 1058.14 1045.58 1058.39 1045.24 1058.82 1044.52 1059.09 1043.99 1059.36 1043.45 1059.69 1042.67 1059.83 1042.26 1059.97 1041.84 1060.16 1041.13 1060.24 1040.69 1060.33 1040.25 1060.44 1039.48 1060.49 1038.99 1060.53 1038.49 1060.54 1037.8 1060.51 1037.42 1060.49 1037.06 1060.41 1036.42 1060.35 1036.03 1060.27 1035.62 1060.14 1035.03 1060.04 1034.69 1059.94 1034.37 1059.79 1033.9 1059.69 1033.66 1059.6 1033.42 1059.36 1032.91 1059.17 1032.52 1058.97 1032.14 1058.65 1031.56 1058.45 1031.26 1058.24 1030.95 1057.89 1030.47 1057.67 1030.19 1057.44 1029.92 1056.96 1029.4 1056.59 1029.05 1056.22 1028.7 1055.63 1028.22 1055.28 1027.98 1054.94 1027.74 1054.37 1027.39 1054.01 1027.21 1053.65 1027.02 1053.11 1026.77 1052.8 1026.66 1052.49 1026.55 1051.93 1026.39 1051.56 1026.3 1051.19 1026.21 1050.52 1026.11 1050.07 1026.07 1049.58 1026.03 1046.12 1026 1041.14 1026L1033 1026 1033 1045.48ZM1050.55 1028.23C1050.88 1028.29 1051.37 1028.41 1051.65 1028.5 1051.93 1028.6 1052.43 1028.8 1052.76 1028.97 1053.09 1029.13 1053.62 1029.44 1053.94 1029.66 1054.26 1029.88 1054.76 1030.27 1055.05 1030.53 1055.33 1030.8 1055.75 1031.22 1055.96 1031.48 1056.18 1031.75 1056.51 1032.19 1056.69 1032.47 1056.87 1032.75 1057.15 1033.23 1057.3 1033.54 1057.46 1033.85 1057.67 1034.34 1057.78 1034.63 1057.89 1034.93 1058.04 1035.45 1058.12 1035.81 1058.19 1036.16 1058.29 1036.81 1058.33 1037.25 1058.39 1037.84 1058.39 1038.28 1058.33 1038.87 1058.29 1039.32 1058.2 1039.97 1058.12 1040.32 1058.05 1040.66 1057.88 1041.26 1057.75 1041.65 1057.61 1042.03 1057.32 1042.7 1057.1 1043.13 1056.88 1043.55 1056.49 1044.19 1056.22 1044.53 1055.97 1044.87 1055.61 1045.3 1055.44 1045.47 1055.27 1045.65 1054.88 1045.98 1054.59 1046.21 1054.29 1046.44 1053.9 1046.72 1053.71 1046.83 1053.53 1046.95 1053.15 1047.15 1052.87 1047.28 1052.59 1047.4 1052.11 1047.58 1051.79 1047.68 1051.48 1047.76 1050.95 1047.87 1050.61 1047.91 1050.2 1047.96 1047.59 1047.98 1042.62 1047.98L1035.22 1047.98 1035.22 1038.06 1035.22 1028.13 1042.59 1028.13C1048.92 1028.13 1050.04 1028.14 1050.55 1028.23Z" fill="#01579B" fill-rule="evenodd"/><path d="M1067 1045.48 1067 1064.97 1068.11 1064.97 1069.22 1064.97 1069.22 1057.51 1069.22 1050.05 1076.81 1050.05C1083.32 1050.05 1084.49 1050.03 1085.11 1049.94 1085.5 1049.89 1086.04 1049.78 1086.3 1049.71 1086.56 1049.63 1086.92 1049.51 1087.12 1049.45 1087.31 1049.37 1087.74 1049.19 1088.07 1049.02 1088.39 1048.86 1088.93 1048.55 1089.26 1048.33 1089.6 1048.11 1090.06 1047.75 1090.3 1047.54 1090.55 1047.32 1090.94 1046.94 1091.18 1046.68 1091.42 1046.42 1091.77 1046.04 1091.93 1045.81 1092.11 1045.58 1092.43 1045.12 1092.64 1044.78 1092.85 1044.43 1093.12 1043.94 1093.24 1043.69 1093.36 1043.43 1093.56 1042.93 1093.69 1042.59 1093.82 1042.24 1094 1041.7 1094.08 1041.39 1094.16 1041.07 1094.27 1040.58 1094.32 1040.29 1094.37 1040 1094.45 1039.35 1094.48 1038.86 1094.53 1038.24 1094.53 1037.7 1094.48 1037.12 1094.44 1036.66 1094.35 1036 1094.27 1035.64 1094.2 1035.29 1094.04 1034.67 1093.9 1034.27 1093.77 1033.88 1093.49 1033.19 1093.27 1032.73 1093.05 1032.29 1092.66 1031.61 1092.42 1031.24 1092.17 1030.87 1091.79 1030.35 1091.58 1030.1 1091.38 1029.84 1090.91 1029.36 1090.56 1029.03 1090.21 1028.7 1089.69 1028.26 1089.39 1028.06 1089.1 1027.85 1088.59 1027.53 1088.25 1027.34 1087.92 1027.15 1087.33 1026.88 1086.96 1026.73 1086.58 1026.59 1085.96 1026.39 1085.58 1026.3 1085.19 1026.21 1084.52 1026.11 1084.07 1026.07 1083.58 1026.03 1080.12 1026 1075.14 1026L1067 1026 1067 1045.48ZM1085.15 1028.34C1085.51 1028.44 1086.16 1028.69 1086.57 1028.89 1087 1029.09 1087.62 1029.44 1087.96 1029.68 1088.31 1029.91 1088.9 1030.41 1089.29 1030.8 1089.69 1031.18 1090.18 1031.74 1090.39 1032.04 1090.6 1032.33 1090.93 1032.86 1091.11 1033.21 1091.29 1033.55 1091.54 1034.05 1091.64 1034.3 1091.75 1034.55 1091.91 1035.06 1092.01 1035.42 1092.1 1035.79 1092.22 1036.33 1092.26 1036.62 1092.31 1036.91 1092.34 1037.54 1092.34 1038.02 1092.34 1038.5 1092.31 1039.14 1092.26 1039.46 1092.22 1039.77 1092.11 1040.32 1092.02 1040.67 1091.93 1041.03 1091.75 1041.59 1091.62 1041.91 1091.5 1042.23 1091.29 1042.71 1091.16 1042.99 1091.03 1043.26 1090.7 1043.81 1090.43 1044.22 1090.11 1044.71 1089.71 1045.18 1089.27 1045.62 1088.89 1045.98 1088.34 1046.44 1088.05 1046.64 1087.75 1046.83 1087.3 1047.09 1087.04 1047.22 1086.78 1047.34 1086.37 1047.5 1086.13 1047.58 1085.89 1047.66 1085.48 1047.78 1085.22 1047.84 1084.81 1047.93 1083.77 1047.94 1076.99 1047.96L1069.22 1047.99 1069.22 1038.06 1069.22 1028.12 1076.85 1028.14 1084.48 1028.17 1085.15 1028.34Z" fill="#01579B" fill-rule="evenodd"/><path d="M1100 1045.48 1100 1064.97 1113.15 1064.97 1126.31 1064.97 1126.31 1063.94 1126.31 1062.9 1114.23 1062.9 1102.16 1062.9 1102.16 1054.51 1102.16 1046.12 1112.51 1046.12 1122.87 1046.12 1122.87 1045.08 1122.87 1044.05 1112.53 1044.04 1102.19 1044.02 1102.17 1036.07 1102.16 1028.13 1114 1028.13 1125.84 1028.13 1125.84 1027.07 1125.84 1026 1112.92 1026 1100 1026 1100 1045.48Z" fill="#01579B" fill-rule="evenodd"/><path d="M1128 1027.07 1128 1028.13 1135.31 1028.13 1142.61 1028.13 1142.61 1046.55 1142.61 1064.97 1143.68 1064.97 1144.76 1064.97 1144.76 1046.55 1144.76 1028.13 1152.06 1028.13 1159.37 1028.13 1159.37 1027.07 1159.37 1026 1143.68 1026 1128 1026 1128 1027.07Z" fill="#01579B" fill-rule="evenodd"/><path d="M1163.03 1036.8C1163.05 1046.39 1163.06 1047.71 1163.16 1048.63 1163.23 1049.2 1163.35 1050.14 1163.44 1050.71 1163.53 1051.28 1163.7 1052.15 1163.8 1052.64 1163.91 1053.13 1164.11 1053.88 1164.25 1054.32 1164.38 1054.76 1164.63 1055.45 1164.79 1055.86 1164.96 1056.25 1165.28 1056.95 1165.52 1057.41 1165.76 1057.86 1166.12 1058.48 1166.33 1058.8 1166.54 1059.12 1166.9 1059.62 1167.12 1059.92 1167.35 1060.21 1167.84 1060.74 1168.2 1061.09 1168.57 1061.45 1169.06 1061.9 1169.3 1062.08 1169.54 1062.28 1170 1062.61 1170.34 1062.82 1170.67 1063.04 1171.13 1063.33 1171.37 1063.46 1171.6 1063.59 1172.1 1063.83 1172.47 1063.99 1172.85 1064.15 1173.5 1064.38 1173.93 1064.51 1174.36 1064.64 1175.02 1064.8 1175.41 1064.87 1175.78 1064.94 1176.41 1065.04 1176.8 1065.09 1177.23 1065.14 1178.18 1065.17 1179.28 1065.17 1180.6 1065.17 1181.26 1065.13 1181.85 1065.05 1182.3 1064.99 1182.94 1064.88 1183.29 1064.8 1183.63 1064.72 1184.19 1064.58 1184.53 1064.48 1184.86 1064.38 1185.41 1064.18 1185.75 1064.04 1186.09 1063.91 1186.69 1063.61 1187.1 1063.38 1187.5 1063.16 1188.14 1062.74 1188.52 1062.48 1188.9 1062.21 1189.55 1061.65 1189.98 1061.25 1190.4 1060.85 1190.93 1060.29 1191.15 1060.02 1191.37 1059.74 1191.76 1059.2 1192.01 1058.82 1192.27 1058.43 1192.65 1057.77 1192.86 1057.35 1193.08 1056.93 1193.36 1056.33 1193.49 1056.02 1193.62 1055.71 1193.83 1055.14 1193.96 1054.76 1194.09 1054.37 1194.29 1053.69 1194.4 1053.23 1194.51 1052.77 1194.68 1051.96 1194.78 1051.43 1194.87 1050.9 1195.01 1049.95 1195.09 1049.33 1195.23 1048.21 1195.24 1048.04 1195.26 1037.1L1195.28 1026 1194.21 1026 1193.14 1026 1193.14 1036.36C1193.14 1042.77 1193.11 1047.1 1193.07 1047.67 1193.03 1048.18 1192.95 1048.97 1192.89 1049.43 1192.83 1049.89 1192.71 1050.67 1192.63 1051.16 1192.53 1051.65 1192.37 1052.41 1192.26 1052.85 1192.15 1053.28 1191.92 1054.01 1191.76 1054.48 1191.59 1054.94 1191.27 1055.69 1191.05 1056.13 1190.83 1056.57 1190.44 1057.25 1190.2 1057.63 1189.95 1058.01 1189.51 1058.6 1189.23 1058.94 1188.94 1059.27 1188.48 1059.75 1188.2 1059.99 1187.92 1060.23 1187.47 1060.59 1187.2 1060.79 1186.93 1060.99 1186.46 1061.3 1186.16 1061.48 1185.85 1061.67 1185.28 1061.95 1184.89 1062.11 1184.51 1062.27 1183.9 1062.49 1183.55 1062.58 1183.21 1062.67 1182.58 1062.8 1182.17 1062.88 1181.75 1062.95 1180.92 1063.04 1180.33 1063.08 1179.73 1063.12 1178.88 1063.14 1178.44 1063.12 1178 1063.09 1177.35 1063.04 1177 1063 1176.65 1062.97 1176.05 1062.88 1175.66 1062.8 1175.28 1062.73 1174.63 1062.57 1174.23 1062.43 1173.82 1062.31 1173.12 1062.01 1172.65 1061.77 1172.19 1061.54 1171.53 1061.14 1171.18 1060.89 1170.83 1060.65 1170.22 1060.14 1169.82 1059.76 1169.42 1059.38 1168.89 1058.79 1168.64 1058.46 1168.38 1058.13 1168.05 1057.65 1167.9 1057.4 1167.75 1057.15 1167.47 1056.65 1167.29 1056.27 1167.09 1055.9 1166.81 1055.26 1166.66 1054.86 1166.5 1054.45 1166.29 1053.85 1166.2 1053.53 1166.11 1053.19 1165.97 1052.65 1165.89 1052.33 1165.82 1051.99 1165.7 1051.37 1165.62 1050.93 1165.55 1050.49 1165.44 1049.74 1165.39 1049.27 1165.33 1048.79 1165.26 1047.83 1165.22 1047.14 1165.18 1046.41 1165.15 1041.64 1165.15 1035.93L1165.15 1026 1164.08 1026 1163 1026 1163.03 1036.8Z" fill="#01579B" fill-rule="evenodd"/><path d="M1216.68 1026.14C1216.65 1026.23 1216.02 1027.69 1215.29 1029.39 1214.55 1031.1 1210.82 1039.76 1206.99 1048.64 1203.17 1057.53 1200.02 1064.84 1200 1064.88 1199.98 1064.94 1200.2 1064.96 1201 1064.96L1202.03 1064.96 1205 1058.19 1207.97 1051.41 1217.55 1051.39 1227.13 1051.37 1230.09 1058.14C1231.72 1061.87 1233.09 1064.92 1233.13 1064.94 1233.17 1064.96 1233.64 1064.96 1234.18 1064.95L1235.15 1064.93 1226.8 1045.48 1218.44 1026.03 1217.59 1026.01C1216.76 1025.99 1216.74 1025.99 1216.68 1026.14ZM1222.05 1039C1224.46 1044.64 1226.42 1049.26 1226.41 1049.28 1226.39 1049.3 1222.38 1049.3 1217.5 1049.3L1208.62 1049.28 1211.38 1042.91C1212.89 1039.42 1214.9 1034.77 1215.85 1032.6 1216.79 1030.43 1217.58 1028.68 1217.61 1028.71 1217.64 1028.73 1219.63 1033.37 1222.05 1039Z" fill="#01579B" fill-rule="evenodd"/><path d="M1240 1045.48 1240 1064.97 1252.65 1064.97 1265.3 1064.97 1265.3 1063.94 1265.3 1062.9 1253.69 1062.9 1242.08 1062.9 1242.08 1044.45 1242.08 1026 1241.04 1026 1240 1026 1240 1045.48Z" fill="#01579B" fill-rule="evenodd"/><path d="M1266 1028.86 1266 1031.73 1271.39 1031.73 1276.78 1031.73 1276.78 1047.98 1276.78 1064.24 1279.84 1064.24 1282.91 1064.24 1282.92 1048 1282.94 1031.76 1288.35 1031.74 1293.75 1031.73 1293.75 1028.86 1293.75 1026 1279.88 1026 1266 1026 1266 1028.86Z" fill="#01579B" fill-rule="evenodd"/><path d="M1343 1045.12 1343 1064.24 1349.66 1064.24C1353.58 1064.24 1356.69 1064.21 1357.24 1064.17 1357.76 1064.13 1358.58 1064.04 1359.05 1063.97 1359.53 1063.9 1360.29 1063.77 1360.73 1063.67 1361.17 1063.58 1362.01 1063.34 1362.6 1063.14 1363.2 1062.94 1364.07 1062.6 1364.55 1062.39 1365.03 1062.17 1365.75 1061.8 1366.16 1061.58 1366.56 1061.34 1367.18 1060.94 1367.54 1060.7 1367.9 1060.45 1368.47 1060.01 1368.82 1059.72 1369.16 1059.43 1369.72 1058.91 1370.04 1058.57 1370.38 1058.22 1370.85 1057.68 1371.09 1057.37 1371.33 1057.06 1371.65 1056.63 1371.8 1056.41 1371.95 1056.19 1372.26 1055.69 1372.48 1055.3 1372.7 1054.92 1373.07 1054.2 1373.28 1053.7 1373.5 1053.21 1373.79 1052.48 1373.93 1052.08 1374.06 1051.67 1374.28 1050.93 1374.41 1050.41 1374.53 1049.9 1374.69 1049.07 1374.77 1048.58 1374.84 1048.09 1374.94 1047.1 1374.98 1046.4 1375.04 1045.4 1375.04 1044.83 1374.98 1043.83 1374.94 1043.13 1374.84 1042.15 1374.77 1041.65 1374.69 1041.16 1374.55 1040.42 1374.46 1039.99 1374.37 1039.57 1374.14 1038.79 1373.96 1038.26 1373.78 1037.72 1373.49 1036.96 1373.31 1036.54 1373.13 1036.14 1372.84 1035.55 1372.67 1035.25 1372.5 1034.93 1372.17 1034.4 1371.95 1034.05 1371.72 1033.71 1371.35 1033.19 1371.12 1032.89 1370.9 1032.6 1370.37 1032.01 1369.94 1031.57 1369.52 1031.14 1368.87 1030.54 1368.5 1030.24 1368.13 1029.95 1367.5 1029.48 1367.09 1029.22 1366.68 1028.95 1365.93 1028.52 1365.45 1028.27 1364.95 1028.01 1364.2 1027.67 1363.78 1027.5 1363.35 1027.33 1362.62 1027.07 1362.16 1026.93 1361.7 1026.79 1360.96 1026.6 1360.52 1026.51 1360.08 1026.42 1359.39 1026.3 1358.98 1026.24 1358.58 1026.18 1357.89 1026.11 1357.44 1026.07 1356.97 1026.03 1353.83 1026 1349.82 1026L1343 1026 1343 1045.12ZM1356.4 1031.8C1357.01 1031.84 1357.82 1031.91 1358.21 1031.97 1358.6 1032.02 1359.28 1032.16 1359.72 1032.27 1360.16 1032.38 1360.81 1032.57 1361.16 1032.71 1361.51 1032.83 1362.15 1033.12 1362.57 1033.34 1362.99 1033.56 1363.58 1033.91 1363.87 1034.11 1364.17 1034.33 1364.72 1034.79 1365.1 1035.16 1365.49 1035.53 1366.04 1036.13 1366.32 1036.5 1366.6 1036.88 1367.03 1037.57 1367.28 1038.04 1367.52 1038.5 1367.83 1039.2 1367.96 1039.58 1368.09 1039.97 1368.27 1040.57 1368.37 1040.91 1368.46 1041.27 1368.58 1041.88 1368.64 1042.29 1368.7 1042.69 1368.77 1043.49 1368.8 1044.07 1368.84 1044.7 1368.84 1045.54 1368.8 1046.16 1368.77 1046.74 1368.71 1047.46 1368.67 1047.75 1368.63 1048.04 1368.55 1048.51 1368.5 1048.78 1368.44 1049.05 1368.3 1049.59 1368.19 1049.96 1368.09 1050.33 1367.87 1050.95 1367.7 1051.34 1367.54 1051.73 1367.24 1052.32 1367.04 1052.66 1366.84 1053 1366.53 1053.46 1366.36 1053.7 1366.19 1053.92 1365.88 1054.3 1365.67 1054.53 1365.47 1054.76 1365.06 1055.15 1364.79 1055.4 1364.51 1055.65 1364.01 1056.04 1363.68 1056.26 1363.35 1056.48 1362.71 1056.83 1362.27 1057.04 1361.83 1057.25 1361.15 1057.53 1360.76 1057.66 1360.37 1057.79 1359.76 1057.95 1359.41 1058.03 1359.05 1058.11 1358.46 1058.22 1358.1 1058.28 1357.55 1058.38 1356.77 1058.4 1353.27 1058.42L1349.1 1058.45 1349.1 1045.09 1349.1 1031.73 1352.2 1031.73C1353.9 1031.73 1355.79 1031.76 1356.4 1031.8Z" fill="#01579B" fill-rule="evenodd"/><path d="M1389.81 1032.77C1388.41 1036.5 1385.19 1045.06 1382.66 1051.78 1380.12 1058.5 1378.03 1064.06 1378.01 1064.12 1377.96 1064.23 1378.13 1064.24 1381.32 1064.22L1384.68 1064.2 1386.36 1059.44C1387.29 1056.82 1388.08 1054.61 1388.12 1054.52L1388.19 1054.38 1395.88 1054.39 1403.57 1054.41 1405.31 1059.32 1407.04 1064.24 1410.4 1064.24 1413.76 1064.24 1413.69 1064.05C1413.65 1063.95 1410.96 1056.81 1407.7 1048.18 1404.45 1039.56 1401.24 1031.04 1400.57 1029.26L1399.36 1026.03 1395.86 1026.01 1392.36 1026 1389.81 1032.77ZM1396.94 1035.89C1397.45 1037.39 1398.68 1040.93 1399.69 1043.75L1401.52 1048.88 1395.88 1048.9C1392.77 1048.91 1390.23 1048.91 1390.22 1048.9 1390.2 1048.89 1391.01 1046.6 1392 1043.82 1392.99 1041.03 1394.22 1037.52 1394.73 1036.01 1395.24 1034.5 1395.68 1033.23 1395.7 1033.19 1395.73 1033.15 1395.81 1033.13 1395.88 1033.14 1396 1033.16 1396.15 1033.55 1396.94 1035.89Z" fill="#01579B" fill-rule="evenodd"/><path d="M1415.09 1026.15C1415.15 1026.23 1417.57 1030.06 1420.49 1034.66 1423.4 1039.26 1426.27 1043.79 1426.87 1044.72L1427.95 1046.43 1427.95 1055.34 1427.95 1064.24 1431 1064.24 1434.05 1064.24 1434.05 1055.32 1434.05 1046.42 1435.07 1044.78C1435.62 1043.89 1438.18 1039.78 1440.75 1035.66 1443.32 1031.54 1445.73 1027.68 1446.1 1027.08L1446.78 1026 1443.14 1026 1439.5 1026 1435.35 1033.03C1431.49 1039.57 1431.19 1040.06 1431.03 1040.06 1430.86 1040.06 1430.53 1039.54 1426.56 1033.03L1422.29 1026.01 1418.64 1026 1415 1026 1415.09 1026.15Z" fill="#01579B" fill-rule="evenodd"/></g></svg>