<svg width="1952" height="1122" xmlns="http://www.w3.org/2000/svg" xmlns:xlink="http://www.w3.org/1999/xlink" overflow="hidden"><defs><clipPath id="clip0"><path d="M24 3 1976 3 1976 1125 24 1125Z" fill-rule="evenodd" clip-rule="evenodd"/></clipPath></defs><g clip-path="url(#clip0)" transform="translate(-24 -3)"><path d="M1372.46 4.57711C1366.96 5.07742 1356.66 6.17831 1349.46 7.07917 1342.35 7.97986 1329.95 9.78125 1322.05 11.1824 1314.14 12.4833 1300.74 15.0855 1292.34 16.987 1283.83 18.9886 1269.73 22.5915 1260.92 25.0934 1252.12 27.5955 1239.02 31.6987 1231.71 34.2008 1224.41 36.7027 1213.01 40.906 1206.41 43.6083 1199.8 46.2103 1188.8 50.9141 1181.9 54.1167 1174.99 57.2191 1162.39 63.4241 1153.89 67.8276 1145.38 72.2312 1132.08 79.6371 1124.48 84.3407 1116.77 88.9445 1104.37 97.0509 1096.77 102.255 1089.16 107.559 1074.76 118.368 1064.66 126.374 1050.75 137.483 1039.85 147.591 1019.24 168.108 1000.53 186.823 988.33 200.033 979.726 210.842 972.924 219.449 963.621 231.558 959.119 237.863 954.618 244.168 947.015 255.577 942.114 263.284 937.212 270.99 929.709 283.5 925.408 291.106 921.106 298.712 914.604 311.322 910.802 319.128 907.101 326.934 901.499 339.344 898.398 346.55 895.397 353.856 890.195 367.166 886.894 376.174 883.593 385.181 878.491 401.594 875.39 412.503 872.389 423.512 869.188 436.122 868.188 440.625 867.287 445.029 866.787 449.432 867.087 450.333 867.687 451.834 879.492 451.934 1000.83 451.934L1133.88 451.934 1135.58 447.631C1136.48 445.329 1141.38 435.121 1146.58 424.913 1151.69 414.704 1158.49 402.295 1161.69 397.391 1164.89 392.387 1171.29 383.68 1175.9 377.875 1180.5 372.07 1192.2 359.46 1201.9 349.753 1212.91 338.744 1223.71 329.036 1230.91 323.632 1237.32 318.928 1246.72 312.323 1252.02 309.02 1257.22 305.717 1267.03 300.313 1273.73 296.91 1280.43 293.508 1290.43 289.004 1296.04 286.802 1301.54 284.601 1311.04 281.298 1317.24 279.396 1323.45 277.495 1333.75 274.793 1340.25 273.392 1346.75 271.89 1358.46 269.789 1366.26 268.688 1378.26 266.887 1385.57 266.586 1413.48 266.586 1442.09 266.586 1448.39 266.887 1460.99 268.688 1469 269.889 1480.7 271.991 1487 273.392 1493.31 274.793 1505.71 278.396 1514.51 281.198 1523.32 284.1 1535.92 289.004 1542.62 292.007 1549.23 295.009 1560.23 300.713 1567.13 304.817 1573.93 308.82 1583.14 314.625 1587.54 317.727 1591.94 320.829 1600.74 327.635 1607.05 332.939 1613.35 338.243 1623.35 347.551 1629.15 353.456 1634.96 359.46 1643.36 368.968 1647.76 374.572 1652.26 380.177 1659.26 389.885 1663.36 396.09 1667.47 402.295 1673.37 412.102 1676.37 417.907 1679.47 423.712 1684.37 434.22 1687.47 441.426 1690.47 448.531 1694.78 460.641 1696.98 468.147 1699.18 475.753 1702.58 489.464 1704.58 498.671 1707.08 510.281 1708.58 520.289 1709.28 530.997 1709.88 539.904 1710.08 559.42 1709.78 577.034 1709.28 603.955 1708.88 609.16 1706.68 621.269 1705.28 628.775 1702.48 641.085 1700.58 648.591 1698.68 656.097 1695.48 667.206 1693.48 673.211 1691.47 679.316 1685.57 692.726 1680.47 703.035 1675.27 713.743 1667.37 727.554 1662.26 735.26 1657.36 742.666 1648.56 754.275 1642.76 761.181 1637.06 768.086 1628.75 777.094 1624.45 781.197 1620.05 785.4 1612.45 792.206 1607.45 796.309 1602.34 800.512 1593.84 807.118 1588.44 810.921 1582.94 814.724 1574.53 820.228 1569.63 823.13 1564.83 825.933 1556.03 830.736 1550.13 833.639 1544.32 836.641 1534.22 841.145 1527.62 843.647 1521.12 846.249 1509.61 850.152 1502.11 852.254 1494.61 854.355 1482.2 857.358 1474.5 858.759 1466.8 860.16 1452.89 861.861 1443.49 862.462 1433.89 863.062 1414.78 863.262 1399.47 862.962 1378.57 862.562 1369.76 861.961 1360.46 860.36 1353.86 859.159 1343.05 856.957 1336.45 855.356 1329.85 853.755 1319.94 850.953 1314.44 849.251 1308.94 847.45 1297.94 843.246 1289.93 839.744 1281.93 836.341 1270.13 830.636 1263.53 827.033 1257.02 823.431 1246.32 816.825 1239.82 812.222 1233.22 807.718 1224.21 800.713 1219.61 796.709 1215.11 792.706 1205.01 782.998 1197.2 775.092 1189.4 767.186 1181.1 758.279 1178.7 755.476 1176.2 752.574 1169.89 743.867 1164.49 736.161 1159.09 728.455 1154.39 722.15 1153.99 722.15 1153.59 722.15 1151.99 727.654 1150.49 734.46 1148.89 741.165 1145.68 754.776 1143.18 764.684 1140.78 774.592 1136.28 790.304 1133.18 799.712 1130.18 809.019 1125.18 823.03 1122.18 830.736 1119.18 838.443 1111.37 855.556 1104.87 868.767 1098.37 881.977 1090.67 896.789 1087.86 901.793 1084.96 906.697 1078.06 917.806 1072.46 926.313 1066.86 934.819 1056.45 949.431 1049.45 958.739 1042.45 967.946 1036.55 976.052 1036.25 976.753 1036.05 977.353 1043.15 984.059 1052.05 991.465 1061.05 998.971 1073.36 1008.78 1079.36 1013.38 1085.46 1017.89 1097.37 1026.29 1105.87 1031.9 1114.37 1037.5 1126.98 1045.41 1133.88 1049.31 1140.78 1053.31 1152.89 1059.82 1160.89 1063.82 1168.89 1067.92 1183.1 1074.63 1192.4 1078.73 1201.8 1082.84 1216.61 1088.74 1225.41 1091.94 1234.22 1095.05 1249.72 1100.05 1259.92 1102.95 1270.13 1105.86 1284.73 1109.66 1292.44 1111.36 1300.14 1113.06 1312.94 1115.56 1320.95 1116.96 1328.95 1118.27 1343.85 1120.37 1353.96 1121.67 1370.56 1123.67 1376.87 1123.87 1415.48 1123.87 1454.09 1123.87 1460.39 1123.67 1477 1121.67 1487.1 1120.37 1503.81 1117.87 1514.01 1115.96 1524.22 1114.06 1540.82 1110.46 1551.03 1107.96 1561.13 1105.36 1579.34 1099.95 1591.54 1095.95 1603.64 1091.94 1620.55 1085.74 1629.05 1082.14 1637.56 1078.53 1650.76 1072.73 1658.26 1069.13 1665.87 1065.52 1678.27 1059.12 1685.77 1054.82 1693.38 1050.61 1705.48 1043.41 1712.58 1038.9 1719.78 1034.4 1730.29 1027.39 1736.09 1023.39 1741.89 1019.39 1750.4 1013.08 1755.1 1009.48 1759.8 1005.88 1769.9 997.47 1777.6 990.964 1785.31 984.459 1800.81 969.747 1812.12 958.438 1823.42 947.129 1837.33 932.217 1843.03 925.412 1848.73 918.506 1857.43 907.498 1862.43 900.892 1867.34 894.187 1874.94 883.479 1879.24 877.073 1883.54 870.668 1889.94 860.76 1893.44 855.056 1896.95 849.351 1902.95 838.843 1906.85 831.737 1910.85 824.531 1917.35 811.521 1921.46 802.714 1925.56 793.907 1931.56 779.896 1934.96 771.689 1938.26 763.383 1943.06 750.573 1945.66 743.167 1948.16 735.761 1952.27 722.25 1954.67 713.143 1957.17 704.035 1960.47 690.224 1962.17 682.318 1963.87 674.412 1966.07 662.502 1967.17 655.797 1968.27 649.091 1969.77 637.983 1970.57 631.077 1971.37 624.172 1972.67 612.062 1973.37 604.056 1974.07 596.049 1974.57 577.835 1974.57 563.523 1974.47 547.611 1973.77 530.297 1972.77 518.988 1971.87 508.779 1970.17 493.968 1969.07 485.961 1967.97 477.955 1965.97 465.445 1964.57 458.039 1963.17 450.633 1959.97 436.422 1957.57 426.514 1955.07 416.506 1949.77 398.491 1945.66 386.382 1941.66 374.272 1934.96 356.258 1930.66 346.35 1926.46 336.442 1919.65 321.53 1915.65 313.323 1911.55 305.017 1904.55 292.007 1900.05 284.3 1895.55 276.594 1887.74 263.984 1882.64 256.278 1877.54 248.472 1868.64 235.862 1862.93 228.256 1857.23 220.55 1848.53 209.541 1843.63 203.736 1838.73 197.931 1829.52 187.623 1823.22 180.818 1816.82 174.012 1805.31 162.603 1797.61 155.398 1789.91 148.192 1778.31 137.883 1771.9 132.579 1765.5 127.275 1754.9 118.868 1748.39 113.964 1741.89 109.061 1731.89 101.855 1726.09 97.9516 1720.28 94.1486 1708.88 86.8428 1700.58 81.9388 1692.38 77.0349 1680.87 70.4296 1675.07 67.3271 1669.27 64.3248 1658.46 59.0205 1651.06 55.6178 1643.66 52.2152 1631.65 47.011 1624.45 44.1086 1617.25 41.1062 1604.64 36.4025 1596.44 33.7003 1588.14 30.8981 1573.33 26.3945 1563.43 23.5923 1553.63 20.7901 1537.92 16.987 1528.52 15.0855 1519.21 13.184 1503.61 10.4818 1494.01 9.18084 1484.4 7.77967 1471.3 6.17831 1465 5.5779 1458.69 4.97749 1437.49 4.27682 1417.98 4.07663 1398.47 3.8766 1377.97 4.07663 1372.46 4.57711Z" fill="#FFC000" fill-rule="evenodd"/><path d="M523.827 23.9156C517.823 24.4157 504.915 25.716 495.308 26.9161 485.702 28.0163 471.493 30.1167 463.788 31.417 456.083 32.7173 439.672 36.3179 427.264 39.4185 414.855 42.4192 396.744 47.6202 386.937 50.9209 377.031 54.1213 362.421 59.5224 354.416 62.9231 346.31 66.2237 331.201 73.225 320.694 78.326 310.287 83.5271 295.577 91.3285 288.173 95.8295 280.768 100.33 269.76 107.432 263.656 111.532 257.653 115.733 247.546 122.935 241.242 127.636 235.038 132.336 224.931 140.538 218.727 145.739 212.623 151.04 199.815 162.942 190.208 172.344 180.702 181.646 167.493 195.249 161.089 202.45 154.585 209.651 145.079 220.954 139.875 227.455 134.672 234.056 127.067 244.058 122.864 249.859 118.761 255.66 111.457 266.462 106.854 273.864 102.151 281.265 94.4455 294.368 89.7424 302.869 85.0394 311.371 77.8347 325.774 73.732 334.875 69.6293 343.977 63.5252 358.58 60.223 367.382 56.921 376.183 52.0177 390.786 49.2159 399.888 46.5142 408.99 42.6115 423.492 40.6102 432.194 38.6089 440.796 35.1066 458.599 32.9051 471.702 30.7038 484.704 28.5023 498.507 28.0019 502.408 27.5017 506.208 26.601 517.41 26.0006 527.312 25.5004 537.114 25 556.218 25 569.821 25 583.323 25.7004 603.227 26.5011 613.929 27.3015 624.631 28.7023 639.034 29.6031 645.935 30.5036 652.836 32.5049 665.539 34.1059 674.14 35.707 682.742 38.4087 695.545 40.0099 702.546 41.7109 709.547 44.913 721.55 47.1145 729.351 49.416 737.053 53.4186 749.755 56.2204 757.457 59.0224 765.158 63.9255 777.76 67.2277 785.462 70.5299 793.163 77.1341 807.266 82.0374 816.668 86.9406 826.17 94.4455 839.672 98.6483 846.674 102.851 853.775 111.156 866.478 117.16 874.979 123.164 883.481 132.17 895.683 137.274 902.084 142.377 908.486 152.584 920.488 159.888 928.789 167.193 936.991 178 948.493 183.904 954.194 189.808 959.896 200.515 969.697 207.62 975.999 214.824 982.2 227.833 992.702 236.639 999.303 245.444 1005.9 258.253 1015.01 265.157 1019.51 272.062 1024.01 283.77 1031.21 291.174 1035.61 298.579 1039.91 313.289 1047.51 323.696 1052.61 334.203 1057.71 349.012 1064.32 356.717 1067.32 364.422 1070.42 376.13 1074.72 382.734 1077.02 389.339 1079.22 402.147 1083.12 411.253 1085.52 420.359 1088.02 434.969 1091.52 443.774 1093.42 452.58 1095.32 465.188 1097.82 471.793 1098.92 478.397 1100.02 489.304 1101.62 496.109 1102.52 502.813 1103.42 516.322 1104.72 526.128 1105.52 535.835 1106.32 555.348 1107.32 569.357 1107.62 584.567 1108.02 604.78 1107.82 619.39 1107.12 632.798 1106.42 652.611 1104.82 663.418 1103.52 674.125 1102.12 688.535 1100.12 695.439 1099.02 702.344 1097.92 714.052 1095.62 721.456 1093.92 728.861 1092.32 742.07 1088.92 750.776 1086.42 759.481 1083.92 771.89 1080.12 778.294 1077.92 784.698 1075.62 795.905 1071.52 803.01 1068.52 810.215 1065.62 823.023 1059.81 831.529 1055.71 840.034 1051.51 852.042 1045.31 858.046 1042.01 864.15 1038.61 876.858 1030.71 886.365 1024.41 895.871 1018.11 910.48 1007.4 918.786 1000.7 927.191 994.002 937.198 985.4 941.1 981.5 945.003 977.699 958.212 963.896 970.42 950.894 982.628 937.891 995.036 924.289 998.038 920.588 1001.14 916.887 1008.94 905.885 1015.45 896.183 1021.95 886.481 1029.96 873.979 1033.16 868.578 1036.36 863.177 1043.07 850.074 1048.17 839.572 1053.27 829.07 1060.18 813.467 1063.48 804.966 1066.78 796.364 1071.58 782.761 1074.09 774.76 1076.59 766.758 1079.89 754.856 1081.59 748.355 1083.19 741.754 1085.7 731.051 1087.1 724.45 1088.5 717.849 1090.7 705.647 1092.1 697.445 1093.5 689.143 1095.1 678.141 1095.7 672.94 1096.2 667.739 1097.2 652.136 1097.7 638.434 1098.2 624.631 1098.7 591.725 1098.7 565.12L1098.7 516.91 898.072 516.91 697.441 516.91 697.441 606.828 697.441 696.845 774.791 697.145C849.24 697.445 852.142 697.545 856.045 699.445 858.146 700.446 861.648 703.046 863.75 705.146 865.751 707.147 868.453 710.748 869.654 713.148 871.154 716.049 872.055 719.849 872.355 725.25 872.756 731.552 872.355 734.152 870.554 739.253 869.353 742.654 865.151 751.656 861.348 759.257 857.546 766.758 850.641 778.661 846.038 785.462 841.435 792.363 834.731 801.465 831.228 805.766 827.626 809.967 819.12 818.868 812.316 825.57 805.612 832.171 796.906 840.173 793.003 843.173 789.201 846.274 781.096 851.975 774.992 855.876 768.988 859.876 757.28 866.378 748.974 870.478 740.769 874.579 729.061 879.78 723.057 881.981 717.054 884.181 706.447 887.582 699.542 889.482 692.638 891.382 681.43 894.083 674.726 895.483 668.021 896.783 657.414 898.584 651.21 899.384 645.006 900.184 632.298 901.384 622.892 902.084 612.085 902.785 595.074 903.085 576.361 902.684 559.15 902.384 541.238 901.384 533.333 900.484 525.928 899.584 513.92 897.784 506.716 896.383 499.411 895.083 487.503 892.483 480.198 890.582 472.793 888.682 461.386 885.181 454.782 882.981 448.177 880.68 438.071 876.78 432.267 874.379 426.463 871.879 416.557 867.178 410.253 863.877 403.948 860.476 393.642 854.475 387.337 850.374 381.133 846.274 373.028 840.573 369.326 837.872 365.723 835.071 358.318 828.97 352.815 824.169 347.411 819.368 337.805 809.867 331.401 802.965 325.097 796.064 315.59 784.562 310.187 777.46 304.783 770.259 297.379 759.757 293.676 753.956 289.974 748.155 283.269 736.052 278.766 726.951 274.263 717.849 269.06 706.647 267.259 701.946 265.357 697.245 262.355 689.043 260.454 683.642 258.553 678.241 255.451 667.739 253.65 660.238 251.749 652.736 249.047 639.834 247.646 631.532 246.345 623.231 244.744 611.228 244.144 604.927 243.643 598.626 243.143 584.423 243.143 573.421 243.143 562.419 243.643 545.816 244.144 536.414 244.744 527.112 246.345 512.71 247.746 504.408 249.147 496.206 251.648 484.004 253.25 477.403 254.951 470.801 258.053 459.299 260.254 451.898 262.656 443.996 267.559 431.694 272.062 421.892 276.365 412.79 282.969 399.888 286.772 393.187 290.574 386.385 297.479 375.483 302.082 368.782 306.785 362.081 314.39 352.279 319.093 346.978 323.796 341.677 333.702 331.375 341.107 323.973 348.612 316.672 358.018 307.97 362.021 304.77 366.124 301.469 373.728 295.768 379.032 291.967 384.335 288.266 393.241 282.465 398.745 279.165 404.248 275.864 413.254 270.863 418.758 268.163 424.262 265.362 433.968 261.061 440.272 258.561 446.576 256.06 456.283 252.66 461.786 250.859 467.29 249.159 477.296 246.358 483.901 244.758 490.605 243.158 501.612 240.957 508.417 239.857 515.221 238.757 527.729 237.257 536.235 236.356 544.741 235.556 560.251 234.856 570.758 234.856 581.265 234.856 596.174 235.356 603.879 235.856 611.584 236.456 622.892 237.557 628.896 238.457 635 239.257 647.008 241.557 655.613 243.458 664.219 245.358 677.127 248.759 684.132 250.959 691.136 253.26 702.144 257.06 708.448 259.561 714.752 262.061 725.559 266.962 732.464 270.463 739.368 273.964 750.175 280.065 756.479 283.966 762.783 287.866 772.99 294.868 778.994 299.369 785.098 303.969 797.406 314.672 806.412 323.173 815.518 331.775 823.924 339.276 825.124 339.976 826.325 340.576 828.126 340.877 828.927 340.576 829.727 340.276 831.729 337.376 833.33 334.175 835.031 330.975 838.933 322.473 842.035 315.372 845.238 308.17 851.742 294.468 856.645 284.766 861.448 275.064 868.853 261.061 873.156 253.76 877.359 246.358 884.663 234.256 889.467 226.855 894.17 219.453 906.177 202.55 915.984 189.347 925.89 176.145 934.796 163.842 935.897 162.042 937.498 159.342 937.598 158.541 936.497 157.141 935.697 156.341 930.594 151.84 925.09 147.339 919.586 142.838 909.88 135.337 903.576 130.636 897.272 125.935 886.264 118.234 879.06 113.533 871.955 108.832 861.148 102.031 855.044 98.3298 849.04 94.7292 833.43 86.4277 820.521 79.9264 807.613 73.4251 788.901 65.0235 778.994 61.1228 769.088 57.2221 755.179 52.121 747.974 49.8206 740.869 47.5202 727.36 43.7193 717.954 41.319 708.648 38.8185 695.539 35.7179 688.935 34.4176 682.331 33.0174 671.324 30.917 664.419 29.8168 657.514 28.7166 645.407 27.1162 637.401 26.3161 629.396 25.4159 610.484 24.3157 595.374 23.8155 580.264 23.3155 560.451 22.9154 551.345 23.0154 542.239 23.0154 529.931 23.5156 523.827 23.9156Z" fill="#192A56" fill-rule="evenodd"/><path d="M1321 562.051 1321 696.986 1324.3 694.983C1326 693.881 1378.09 663.528 1439.97 627.665 1501.86 591.702 1552.55 562.251 1552.65 562.151 1552.75 562.051 1501.26 531.998 1438.27 495.434 1375.29 458.77 1323.1 428.417 1322.4 428.016 1321.2 427.315 1321 448.953 1321 562.051Z" fill="#FFC000" fill-rule="evenodd"/></g></svg>