<?xml version="1.0" standalone="no"?>
<!DOCTYPE svg PUBLIC "-//W3C//DTD SVG 20010904//EN"
 "http://www.w3.org/TR/2001/REC-SVG-20010904/DTD/svg10.dtd">
<svg version="1.0" xmlns="http://www.w3.org/2000/svg"
 width="1952.000000pt" height="1952.000000pt" viewBox="0 0 1952.000000 1952.000000"
 preserveAspectRatio="xMidYMid meet">
<metadata>
Created by potrace 1.11, written by Peter Selinger 2001-2013
</metadata>
<g transform="translate(0.000000,1952.000000) scale(0.100000,-0.100000)"
fill="#000000" stroke="none">
<path d="M13479 15356 c-2 -2 -35 -7 -74 -10 -100 -10 -147 -16 -260 -33 -55
-8 -109 -16 -120 -17 -11 -2 -33 -6 -50 -9 -16 -4 -46 -9 -65 -12 -19 -2 -46
-7 -60 -9 -14 -3 -38 -8 -55 -12 -202 -41 -550 -137 -745 -206 -270 -94 -624
-253 -855 -383 -44 -25 -87 -48 -95 -52 -22 -10 -235 -143 -326 -204 -77 -51
-246 -176 -311 -228 -17 -14 -48 -39 -69 -56 -43 -34 -198 -168 -230 -200 -11
-11 -58 -57 -105 -101 -82 -80 -330 -334 -393 -404 -51 -56 -157 -188 -222
-275 -32 -44 -62 -82 -65 -85 -3 -3 -48 -68 -100 -145 -282 -417 -480 -809
-652 -1285 -37 -104 -108 -328 -123 -389 -2 -9 -17 -68 -33 -131 -17 -63 -33
-138 -37 -166 l-6 -52 38 -4 c22 -3 622 -6 1335 -6 1032 -2 1298 0 1302 10 2
7 5 16 6 20 0 5 50 105 110 224 170 334 267 469 535 738 192 194 266 258 429
369 410 282 941 463 1422 486 245 11 643 4 745 -13 38 -7 102 -17 135 -21 17
-3 41 -7 55 -10 14 -3 34 -7 45 -9 33 -7 248 -64 280 -75 400 -136 690 -297
970 -535 250 -214 429 -422 614 -713 79 -124 205 -401 262 -575 26 -77 95
-357 109 -438 6 -36 13 -76 16 -90 27 -154 26 -859 -2 -1020 -29 -172 -114
-499 -156 -605 -28 -71 -35 -89 -38 -97 -5 -17 -132 -269 -170 -336 -104 -185
-268 -400 -435 -567 -117 -118 -141 -139 -250 -226 -222 -178 -473 -324 -725
-424 -52 -20 -104 -41 -115 -46 -22 -9 -184 -58 -212 -64 -10 -2 -65 -15 -123
-29 -58 -14 -132 -29 -165 -32 -33 -3 -62 -7 -65 -9 -21 -13 -194 -20 -480
-20 -330 0 -441 5 -550 25 -30 5 -70 12 -89 15 -19 3 -37 8 -41 10 -4 2 -22 7
-41 10 -19 3 -68 15 -109 26 -41 12 -88 24 -105 29 -171 45 -509 198 -695 315
-203 128 -330 235 -566 475 -141 144 -164 170 -284 338 -58 80 -110 147 -117
149 -7 3 -15 -11 -19 -34 -5 -21 -9 -40 -9 -43 -1 -3 -5 -16 -8 -30 -4 -14
-29 -117 -57 -230 -54 -218 -87 -331 -152 -525 -43 -127 -115 -313 -127 -330
-4 -5 -14 -26 -21 -45 -16 -43 -214 -443 -260 -525 -78 -141 -236 -376 -399
-595 l-130 -175 70 -67 c39 -37 139 -123 224 -191 388 -312 782 -547 1305
-779 96 -43 331 -131 460 -173 140 -45 488 -138 560 -150 19 -3 51 -10 70 -15
19 -5 49 -11 65 -13 17 -3 75 -12 130 -21 55 -9 116 -18 135 -20 19 -3 67 -9
105 -15 152 -22 236 -25 655 -26 454 0 540 4 705 29 55 8 118 18 140 21 22 3
49 7 60 10 11 2 43 7 70 11 28 3 53 8 56 10 4 2 52 13 106 23 112 23 305 68
343 81 14 5 59 18 100 30 207 61 515 172 662 239 35 15 86 38 113 51 78 34
342 168 383 194 20 12 57 34 82 48 278 157 601 389 870 627 132 116 505 495
599 606 227 272 447 593 626 914 52 94 205 403 205 416 0 2 14 35 31 72 69
149 149 369 227 623 20 65 80 294 88 339 3 12 11 51 19 85 7 33 16 77 19 96 3
19 8 46 11 60 7 33 13 67 20 115 3 23 7 51 10 64 2 13 7 49 10 80 3 31 7 65 9
76 2 11 7 51 11 88 3 37 8 78 10 89 24 122 23 765 0 983 -20 180 -34 300 -41
345 -4 19 -8 49 -11 65 -9 64 -25 153 -43 240 -6 28 -12 59 -14 70 -46 223
-190 691 -273 885 -8 19 -19 44 -23 55 -190 448 -398 815 -678 1195 -173 235
-300 380 -541 620 -237 237 -358 342 -611 534 -486 369 -1052 661 -1640 846
-184 57 -510 141 -640 164 -127 23 -131 24 -181 30 -25 4 -57 9 -70 11 -28 5
-230 31 -304 40 -55 7 -930 17 -936 11z"/>
<path d="M5029 15166 c-2 -2 -38 -7 -79 -10 -119 -11 -138 -13 -365 -42 -27
-3 -57 -7 -65 -9 -8 -1 -35 -6 -60 -10 -25 -3 -57 -8 -72 -11 -14 -2 -80 -16
-145 -30 -65 -14 -125 -27 -133 -29 -105 -23 -352 -93 -510 -145 -397 -131
-837 -348 -1184 -584 -156 -106 -152 -103 -221 -156 -83 -62 -79 -59 -190
-151 -139 -115 -143 -118 -385 -359 -209 -208 -278 -283 -391 -420 -30 -36
-56 -67 -59 -70 -16 -15 -195 -258 -247 -335 -65 -97 -183 -284 -183 -290 0
-2 -21 -39 -47 -82 -101 -170 -259 -511 -340 -733 -54 -149 -145 -440 -158
-510 -2 -10 -10 -45 -19 -77 -27 -107 -47 -206 -90 -453 -16 -88 -17 -97 -35
-215 -29 -196 -36 -340 -36 -730 1 -299 7 -494 20 -575 2 -14 7 -59 10 -100 3
-41 10 -97 15 -125 5 -27 11 -70 14 -95 11 -95 78 -422 110 -540 43 -157 68
-244 95 -327 33 -101 113 -315 141 -378 76 -169 107 -235 161 -340 34 -66 77
-146 95 -178 19 -32 34 -60 34 -62 0 -12 263 -413 279 -425 4 -3 18 -21 31
-40 14 -19 28 -39 32 -45 369 -478 709 -812 1153 -1133 77 -56 145 -105 150
-110 18 -15 325 -204 373 -229 382 -206 666 -324 1067 -446 154 -47 549 -136
720 -162 109 -17 169 -25 220 -30 33 -3 69 -8 80 -10 17 -3 60 -7 215 -20 298
-25 916 -25 1160 0 19 2 67 6 106 10 39 3 80 7 90 9 11 2 46 7 79 11 33 5 67
9 75 10 8 1 40 5 70 9 53 7 139 21 190 31 14 3 39 8 55 11 199 35 580 144 808
230 366 138 745 337 1042 547 87 62 247 182 282 212 6 5 33 28 60 50 118 97
581 581 709 742 58 73 250 357 328 486 133 220 291 579 411 932 38 112 120
433 141 550 3 17 9 48 14 70 12 56 49 274 56 332 3 26 7 61 10 78 4 33 11 140
19 305 3 58 8 365 10 683 l4 577 -2007 0 -2007 0 0 -894 c0 -492 2 -897 5
-899 3 -3 324 -7 714 -9 390 -1 742 -5 783 -9 85 -7 135 -35 190 -107 53 -69
72 -185 46 -276 -56 -192 -290 -577 -463 -760 -231 -244 -380 -367 -601 -494
-188 -108 -433 -215 -594 -258 -227 -62 -330 -86 -425 -99 -25 -3 -52 -8 -60
-10 -8 -2 -40 -7 -70 -10 -30 -3 -68 -8 -85 -10 -200 -25 -940 -26 -1085 0
-14 2 -70 11 -125 19 -149 23 -159 25 -300 57 -173 40 -440 123 -542 170 -23
10 -45 19 -48 19 -15 0 -270 133 -364 189 -300 182 -568 421 -801 716 -180
227 -287 403 -418 684 -130 277 -227 611 -268 921 -4 30 -9 66 -11 80 -18 129
-24 588 -10 795 10 144 37 340 63 453 7 34 16 74 19 90 5 29 41 165 73 277 91
314 369 814 592 1065 114 127 346 353 450 437 255 205 534 361 880 492 55 21
281 87 323 95 12 2 78 15 147 29 69 14 157 29 195 32 39 4 72 8 75 10 30 18
678 28 840 12 500 -48 967 -190 1360 -415 105 -60 285 -179 340 -224 125 -103
147 -122 235 -203 50 -45 113 -104 140 -129 66 -62 102 -81 121 -65 12 10 62
109 129 254 55 122 209 432 253 512 83 149 90 161 168 286 82 133 159 243 359
515 150 204 165 226 165 245 0 23 -271 240 -485 388 -358 249 -841 499 -1245
645 -217 79 -580 177 -845 228 -156 30 -192 36 -330 52 -33 3 -67 8 -75 9 -16
3 -148 13 -280 21 -97 6 -836 15 -841 10z"/>
<path d="M12977 11087 c-3 -17 -6 -623 -6 -1345 l-2 -1313 39 23 c21 13 47 28
57 35 51 30 582 339 600 349 11 6 45 26 75 44 30 18 73 43 95 55 22 13 183
107 359 209 175 102 320 186 323 186 2 0 16 8 31 19 15 10 186 110 379 222
194 112 353 206 353 209 0 3 -17 14 -38 26 -38 22 -94 54 -242 141 -98 57
-1090 635 -1410 821 -118 68 -294 170 -390 227 -241 140 -217 131 -223 92z"/>
</g>
</svg>
